<svg width="702" height="378" viewBox="0 0 702 378" xmlns="http://www.w3.org/2000/svg"><title>03844B0C-931D-4EBE-91E8-9EDDFC5D1695</title><g transform="matrix(-1 0 0 1 702 -1)" fill="none" fill-rule="evenodd"><path d="M186.343 54.033a1.34 1.34 0 0 1-.403-.06l-21.57-6.881a1.325 1.325 0 0 1-.86-1.666 1.322 1.322 0 0 1 1.669-.862l21.57 6.878a1.33 1.33 0 0 1 .86 1.668 1.333 1.333 0 0 1-1.266.923M203.858 59.617c-.133 0-.27-.019-.406-.061l-9.825-3.135a1.327 1.327 0 0 1 .809-2.528l9.825 3.132a1.328 1.328 0 0 1-.403 2.592M331.346 100.962c-.132 0-.267-.019-.403-.064L210.455 62.476a1.328 1.328 0 0 1 .809-2.528L331.752 98.37a1.33 1.33 0 0 1 .86 1.669 1.333 1.333 0 0 1-1.266.923M269.797 314.024a1.325 1.325 0 0 1-.403-2.589l37.745-12.037a1.328 1.328 0 0 1 .809 2.528L270.2 313.963c-.132.042-.27.06-.403.06M252.574 319.515a1.326 1.326 0 0 1-.403-2.589l8.761-2.793a1.32 1.32 0 0 1 1.669.86c.223.7-.162 1.445-.86 1.668l-8.764 2.793a1.34 1.34 0 0 1-.403.06" fill="#FFFFFE"/><path d="M243.816 322.308a1.325 1.325 0 0 1-.403-2.589l8.758-2.793c.7-.226 1.443.164 1.666.862a1.325 1.325 0 0 1-.86 1.666l-8.756 2.793a1.358 1.358 0 0 1-.405.06M203.091 335.297a1.327 1.327 0 0 1-.406-2.589l34.733-11.077a1.32 1.32 0 0 1 1.668.862 1.327 1.327 0 0 1-.86 1.666l-34.732 11.077a1.353 1.353 0 0 1-.403.061M442.58 139.564c-.132 0-.27-.021-.405-.063l-25.29-8.064a1.33 1.33 0 0 1-.86-1.669 1.323 1.323 0 0 1 1.67-.859l25.289 8.064a1.327 1.327 0 0 1-.404 2.591M454.119 143.243c-.13 0-.268-.018-.403-.063l-5.87-1.873a1.325 1.325 0 0 1-.86-1.666 1.32 1.32 0 0 1 1.669-.862l5.87 1.873a1.327 1.327 0 1 1-.406 2.592" fill="#FFFFFE"/><path d="M459.989 145.113a1.34 1.34 0 0 1-.403-.06l-5.87-1.873a1.325 1.325 0 0 1-.86-1.666 1.322 1.322 0 0 1 1.669-.862l5.87 1.872a1.327 1.327 0 0 1-.406 2.59M66.255 16.768c-.133 0-.27-.019-.406-.061L40.563 8.64a1.326 1.326 0 1 1 .806-2.528l25.29 8.066a1.325 1.325 0 0 1-.404 2.589M77.794 20.447c-.13 0-.268-.019-.404-.061l-5.87-1.873a1.327 1.327 0 0 1-.86-1.668 1.32 1.32 0 0 1 1.67-.86l5.87 1.873a1.327 1.327 0 0 1-.406 2.589" fill="#FFFFFE"/><path d="M83.664 22.32a1.34 1.34 0 0 1-.404-.061l-5.87-1.873a1.325 1.325 0 0 1-.859-1.666 1.319 1.319 0 0 1 1.668-.862l5.87 1.87a1.33 1.33 0 0 1 .86 1.669 1.333 1.333 0 0 1-1.265.923M109.353 362.547c-.562 0-1.082-.361-1.265-.923a1.327 1.327 0 0 1 .86-1.666l8.764-2.796a1.325 1.325 0 0 1 1.668.862 1.324 1.324 0 0 1-.86 1.666l-8.763 2.796a1.34 1.34 0 0 1-.404.06" fill="#FFFFFE"/><path d="M100.595 365.34c-.563 0-1.082-.361-1.266-.923a1.33 1.33 0 0 1 .863-1.669l8.756-2.79a1.328 1.328 0 0 1 .809 2.528l-8.76 2.79c-.132.045-.27.064-.402.064M59.87 378.33a1.328 1.328 0 0 1-.406-2.592l34.733-11.075a1.325 1.325 0 0 1 1.668.86 1.33 1.33 0 0 1-.86 1.668l-34.731 11.075a1.278 1.278 0 0 1-.404.063M428.392 257.642a1.327 1.327 0 0 1-.403-2.592l34.732-11.077a1.328 1.328 0 1 1 .806 2.53l-34.732 11.075c-.132.045-.27.064-.403.064" fill="#FFFFFE"/><ellipse fill="#F4E3B5" cx="335.914" cy="287.064" rx="21.531" ry="21.531"/><path d="M410.774 264.071a1.327 1.327 0 0 1-.406-2.589l8.759-2.793a1.327 1.327 0 0 1 .809 2.528l-8.759 2.793a1.353 1.353 0 0 1-.403.061M370.047 277.06c-.562 0-1.082-.36-1.265-.922a1.326 1.326 0 0 1 .862-1.666l34.73-11.077a1.327 1.327 0 1 1 .809 2.528L370.45 277c-.133.042-.27.06-.403.06" fill="#FFFFFE"/><path d="M348.5 299.172l-.153-6.347c0-1.385-1.115-2.47-2.502-2.47h-20.042c-1.382 0-2.504 1.085-2.504 2.47l-.154 6.347H348.5" fill="#E47172"/><path d="M323.71 299.172h24.228l-.138-5.785c0-1.087-.862-1.928-1.955-1.928h-20.042c-1.096 0-1.953.84-1.953 1.915l-.14 5.798zm25.355 1.104h-26.482l.17-6.915c0-1.65 1.37-3.006 3.05-3.006h20.042c1.687 0 3.056 1.356 3.056 3.019l.164 6.902z" fill="#E37172"/><path fill="#E6E7E3" d="M335.827 297.493l-5.542-7.138h11.213l-5.671 7.138"/><path fill="#E37172" d="M335.819 298.387l-5.971-7.692.872-.677 5.11 6.584 5.233-6.589.867.687-6.111 7.687"/><path d="M342.991 284.294a7.165 7.165 0 0 1-7.164 7.165 7.164 7.164 0 0 1-7.168-7.165v-4.408a7.164 7.164 0 0 1 7.168-7.162 7.165 7.165 0 0 1 7.164 7.162v4.408" fill="#FFF"/><path d="M328.577 279.403c0-4.626 3.414-6.679 7.621-6.679h.183c3.117 0 6.592 2.477 6.979 4.958.294 1.91-4.597-.22-5.605-1.6-.077-.1-.196.236-.29.334-4.004 4.281-8.888 2.987-8.888 2.987" fill="#738990"/><path d="M335.734 272.724c-3.905 0-7.075 3.17-7.075 7.066v4.597c0 3.9 3.17 7.072 7.075 7.072h.183c3.896 0 7.074-3.173 7.074-7.072v-4.597c0-3.896-3.178-7.066-7.074-7.066h-.183zm.183 19.836h-.183c-4.512 0-8.175-3.666-8.175-8.173v-4.597c0-4.504 3.663-8.17 8.175-8.17h.183c4.51 0 8.172 3.666 8.172 8.17v4.597c0 4.507-3.663 8.173-8.172 8.173z" fill="#F4E3B5"/><path d="M331.13 279.97c-1.515 0-2.641-.357-2.669-.368l.308-1.05c.22.071 5.458 1.716 7.965-2.876l.315-.575.475.43c.923.84 3.577 2.79 4.818 1.731l.653.86c-1.758 1.501-4.548-.435-5.686-1.356-1.696 2.624-4.252 3.205-6.178 3.205M333.065 282.642h-1.098a.551.551 0 1 1 0-1.104h1.098c.31 0 .552.247.552.552a.548.548 0 0 1-.552.552M339.678 282.642h-1.1a.548.548 0 0 1-.547-.552c0-.305.244-.552.546-.552h1.101c.31 0 .552.247.552.552a.548.548 0 0 1-.552.552" fill="#738990"/><ellipse fill="#F4E3B5" cx="254.246" cy="195.921" rx="33.912" ry="33.912"/><path d="M274.214 215.437l-.242-9.981c0-2.18-1.75-3.884-3.933-3.884h-31.513c-2.172 0-3.936 1.703-3.936 3.884l-.241 9.981h39.865" fill="#E8A22D"/><path d="M235.237 215.437h38.093l-.215-9.098c0-1.708-1.358-3.032-3.076-3.032h-31.513c-1.721 0-3.069 1.324-3.069 3.01l-.22 9.12zm39.863 1.735h-41.635l.263-10.875c0-2.595 2.156-4.725 4.798-4.725h31.513c2.65 0 4.806 2.13 4.806 4.746l.255 10.854z" fill="#E8A22E"/><path fill="#E6E7E3" d="M254.282 212.795l-8.708-11.223h17.632l-8.924 11.223"/><path fill="#E8A22E" d="M254.275 214.198l-9.39-12.092 1.374-1.064 8.029 10.353 8.233-10.361 1.366 1.08-9.612 12.084"/><path d="M265.55 192.045c0 6.22-5.047 11.262-11.268 11.262-6.22 0-11.267-5.042-11.267-11.262v-6.934c0-6.218 5.047-11.26 11.267-11.26s11.268 5.042 11.268 11.26v6.934" fill="#FFF"/><path d="M242.89 184.355c0-7.276 5.369-10.504 11.981-10.504h.287c4.902 0 10.363 3.894 10.97 7.796.465 3.002-7.222-.348-8.808-2.515-.122-.16-.31.369-.457.525-6.297 6.73-13.973 4.698-13.973 4.698" fill="#515251"/><path d="M246.62 185.243c-2.523 0-4.401-.565-4.446-.578l.512-1.652c.366.114 9.098 2.697 13.276-4.523l.527-.9.79.675c1.54 1.323 5.964 4.384 8.038 2.724l1.088 1.35c-2.937 2.36-7.587-.684-9.478-2.133-2.836 4.125-7.093 5.037-10.308 5.037" fill="#515251"/><path d="M254.14 173.85c-6.141 0-11.125 4.985-11.125 11.112v7.226c0 6.132 4.984 11.12 11.124 11.12h.29c6.127 0 11.121-4.988 11.121-11.12v-7.226c0-6.127-4.994-11.111-11.122-11.111h-.289zm.288 31.19h-.289c-7.093 0-12.851-5.765-12.851-12.852v-7.226c0-7.082 5.758-12.843 12.851-12.843h.29c7.09 0 12.848 5.761 12.848 12.843v7.226c0 7.087-5.758 12.851-12.849 12.851z" fill="#F4E3B5"/><path d="M249.943 189.445h-1.727a.87.87 0 0 1-.867-.87.87.87 0 0 1 .867-.865h1.727c.488 0 .867.39.867.865 0 .483-.379.87-.867.87M260.34 189.445h-1.731a.863.863 0 0 1-.86-.87c0-.475.385-.865.86-.865h1.732c.488 0 .867.39.867.865 0 .483-.38.87-.867.87" fill="#3A3A39"/><ellipse fill="#F4E3B5" cx="371.072" cy="111.425" rx="28.529" ry="28.529"/><path d="M386.662 127.93l-.199-8.193c0-1.79-1.437-3.191-3.228-3.191H357.36c-1.785 0-3.234 1.4-3.234 3.19l-.196 8.194h32.732" fill="#57BEC3"/><path d="M354.657 127.93h31.279l-.175-7.47c0-1.4-1.115-2.487-2.526-2.487H357.36c-1.414 0-2.52 1.087-2.52 2.472l-.183 7.485zm32.732 1.425h-34.186l.218-8.929c0-2.13 1.77-3.88 3.939-3.88h25.875c2.175 0 3.947 1.75 3.947 3.899l.207 8.91z" fill="#57BDC3"/><path fill="#E6E7E3" d="M370.299 125.763l-7.154-9.217h14.478l-7.324 9.217"/><path fill="#57BDC3" d="M370.291 126.917l-7.711-9.931 1.127-.875 6.597 8.5 6.759-8.506 1.12.886-7.892 9.926"/><path d="M379.548 108.723c0 5.109-4.143 9.25-9.25 9.25-5.108 0-9.254-4.141-9.254-9.25v-5.692c0-5.106 4.146-9.247 9.255-9.247 5.106 0 9.25 4.14 9.25 9.247v5.692" fill="#FFF"/><path d="M360.94 102.41c0-5.973 4.412-8.626 9.839-8.626h.236c4.027 0 8.51 3.2 9.01 6.403.38 2.465-5.933-.286-7.235-2.066-.099-.13-.252.305-.372.432-5.172 5.526-11.477 3.857-11.477 3.857" fill="#F6D35B"/><path d="M370.18 93.784c-5.043 0-9.136 4.096-9.136 9.125v5.934c0 5.034 4.093 9.13 9.136 9.13h.238c5.03 0 9.13-4.096 9.13-9.13v-5.934c0-5.03-4.1-9.125-9.13-9.125h-.238zm.238 25.61h-.238c-5.823 0-10.555-4.734-10.555-10.551v-5.934c0-5.814 4.732-10.547 10.555-10.547h.238c5.82 0 10.547 4.733 10.547 10.547v5.934c0 5.817-4.727 10.551-10.547 10.551z" fill="#F4E3B5"/><path d="M364.686 103.14c-1.847 0-3.224-.462-3.255-.475l.376-1.358c.268.095 6.661 2.217 9.72-3.711l.386-.74.58.554c1.127 1.085 4.366 3.6 5.884 2.236l.798 1.109c-2.15 1.939-5.555-.562-6.943-1.75-2.075 3.384-5.192 4.135-7.546 4.135M366.734 106.588h-1.417a.712.712 0 1 1 0-1.422h1.417c.4 0 .713.318.713.708a.707.707 0 0 1-.713.714M375.272 106.588h-1.421a.708.708 0 0 1-.709-.714c0-.39.316-.708.709-.708h1.421c.4 0 .711.318.711.708 0 .398-.31.714-.71.714" fill="#F5D25B"/><path d="M247.519 102.007c5.313 0 8.583 5.629 8.583 10.942v39.456c0 1.467-.053 1.706-.934.533l-7.713-11.143h-35.658c-5.313 0-11.398-3.976-11.398-9.29V112.95c0-5.313 6.085-10.942 11.398-10.942h35.722" fill="#3BB190"/><path d="M211.797 104.66c-4.74 0-8.746 3.795-8.746 8.289v19.557c0 4.69 4.332 9.289 8.746 9.289h36.294l8.011 10.019v-38.865c0-4.494-3.931-8.29-8.583-8.29h-35.722zm44.812 50.803c-.472 0-1.173-.183-1.836-1.063l-7.955-9.952h-35.021c-5.86 0-11.398-5.804-11.398-11.942v-19.557c0-5.931 5.22-10.942 11.398-10.942h35.722c6.09 0 11.236 5.01 11.236 10.942v39.456c0 2.114-1.077 3.058-2.146 3.058z" fill="#3CB190"/><path d="M252.123 135.164a1.327 1.327 0 0 1-1.326-1.327v-5.305a1.327 1.327 0 0 1 2.653 0v5.305c0 .732-.595 1.327-1.327 1.327M252.123 124.554a1.327 1.327 0 0 1-1.326-1.327v-4.973c0-4.454-5.613-8.04-10.26-8.04a1.325 1.325 0 0 1-1.326-1.326c0-.735.591-1.327 1.326-1.327 6.096 0 12.913 4.573 12.913 10.693v4.973c0 .732-.595 1.327-1.327 1.327" fill="#FFFFFE" opacity=".23"/><path d="M239.158 125.097a4.316 4.316 0 1 0 8.63-.002 4.316 4.316 0 0 0-8.63.002M226.224 125.097a4.316 4.316 0 1 0 8.63 0 4.316 4.316 0 0 0-8.63 0M213.293 125.097a4.316 4.316 0 1 0 8.63 0 4.316 4.316 0 0 0-8.63 0" fill="#FFF"/><path d="M73.077 279.727H54.51a1.327 1.327 0 0 1 0-2.653h18.567a1.327 1.327 0 0 1 0 2.653M46.552 279.727H17.374a1.327 1.327 0 0 1 0-2.653h29.178a1.327 1.327 0 0 1 0 2.653M73.077 292.99H35.942a1.327 1.327 0 0 1 0-2.653h37.135a1.327 1.327 0 0 1 0 2.652M277.322 245.244H253.45a1.327 1.327 0 0 1 0-2.653h23.872a1.327 1.327 0 0 1 0 2.653M325.068 253.201H306.5a1.327 1.327 0 0 1 0-2.652h18.568a1.327 1.327 0 0 1 0 2.652M298.543 253.201h-29.178a1.327 1.327 0 0 1 0-2.652h29.178a1.327 1.327 0 0 1 0 2.652M173.874 139.142h-37.136a1.327 1.327 0 0 1 0-2.652h37.136a1.327 1.327 0 0 1 0 2.652M423.212 226.676h-18.568a1.327 1.327 0 0 1 0-2.653h18.568a1.327 1.327 0 0 1 0 2.653M195.094 157.71h-29.178a1.327 1.327 0 0 1 0-2.652h29.178a1.327 1.327 0 0 1 0 2.652M57.162 128.532H38.594a1.327 1.327 0 0 1 0-2.652h18.568a1.327 1.327 0 0 1 0 2.652M30.637 128.532H1.459a1.327 1.327 0 0 1 0-2.652h29.178a1.327 1.327 0 0 1 0 2.652" fill="#FFFFFE"/><path fill="#FFF" d="M603.584 213.413h26.525v-37.135h-26.525z"/><path fill="#E6E7E3" d="M569.1 271.769h23.826l13.093-66.313H569.1v66.313"/><path d="M569.1 271.769h21.216l17.06-68.966h-38.275v68.966zm23.293 2.653h-25.945V200.15h44.316l-18.371 74.27z" fill="#E5E6E3"/><path fill="#DF4E4D" d="M582.364 216.066h34.482v-45.093h-34.482z"/><path fill="#E46D6B" d="M582.364 189.54h34.482v-21.22h-34.482z"/><path fill="#FFF" d="M473.61 246.323l111.406-31v-44.281L473.61 135.615v110.708"/><path fill="#DF4E4D" d="M493.26 141.572l-.33 99.483-19.32 5.268V135.615l19.65 5.957"/><path d="M619.059 231.785c-4.937-5.533-8.098-4.722-14.515-8.43l-1.34 6.074s-2.106 2.183-7.185 2.167c-6.57-.018-20.539-.055-30.706.451-5.846.3-6.87 10.815.342 10.711 0 0 13.86-.461 16.377-.257 1.838.151 1.838 2.963-.016 2.981 0 0-14.088-.212-19.38-.087-5.814.122-5.729 9.111 1.197 9.095l17.96-.042c1.223-.013 1.35 2.6-.132 2.605-2.162.005-11.748-.04-12.977-.133-7.092-.525-6.159 8.79-1.846 8.756 0 0 14.398-.111 15.775-.016 2.172.151 2.172 2.87.003 3.085-1.666.167-7.81.308-9.613.318-5.77.008-5.48 9.152-.515 9.138l13.31-.13s28.266-.11 34.934-2.22c2.112-.668 2.664-3.634 4.168-4.297 1.318-.58 2.634-.005 6.217-.09l-.072-35.411s-8.254-.093-11.986-4.268" fill="#FADBB7"/><path fill="#57BEC3" d="M627.308 278.201h74.685v-49.655h-74.685z"/><path fill="#75C6CA" d="M627.308 249.124h74.685v-20.578h-74.685z"/><path d="M637.743 272.424a2.286 2.286 0 0 0 2.279-2.292 2.288 2.288 0 1 0-4.576.014 2.29 2.29 0 0 0 2.297 2.278" fill="#FFF"/><path fill="#B04F34" d="M348.081 256.212h10.242v-8.865H348.08z"/><path d="M348.784 255.512h8.836v-7.462h-8.836v7.462zm-1.403 1.403h11.645v-10.27H347.38v10.27z" fill="#3A3A39"/><path d="M371.615 222.53c0-10.167-8.242-18.414-18.414-18.414-10.167 0-18.406 8.247-18.406 18.414 0 7.438 4.419 13.828 10.766 16.732v7.889h15.282v-7.889c6.352-2.904 10.772-9.294 10.772-16.732" fill="#FDE91E"/><path d="M346.264 246.448h13.881v-7.637l.409-.188c6.294-2.878 10.36-9.194 10.36-16.093 0-9.767-7.947-17.71-17.713-17.71-9.762 0-17.706 7.943-17.706 17.71 0 6.9 4.066 13.215 10.36 16.093l.41.188v7.637zm15.284 1.406h-16.687v-8.146c-6.56-3.191-10.772-9.88-10.772-17.178 0-10.541 8.576-19.117 19.112-19.117 10.544 0 19.116 8.576 19.116 19.117 0 7.297-4.21 13.987-10.769 17.18v8.144z" fill="#FDE91E"/><path fill="#E36745" d="M345.487 251.345h15.435v-8.865h-15.435z"/><path d="M346.19 250.642h14.03v-7.46h-14.03v7.46zm-1.406 1.405h16.838v-10.27h-16.838v10.27z" fill="#3A3A39"/><path d="M360.806 246.159h-8.43a.703.703 0 1 1 0-1.406h8.43c.387 0 .7.316.7.703a.7.7 0 0 1-.7.703M355.185 248.968h-8.43a.7.7 0 1 1 0-1.403h8.43a.7.7 0 1 1 0 1.403" fill="#3A3A39"/><path d="M339.8 218.899a.702.702 0 0 1-.674-.905c1.313-4.318 4.621-7.854 8.847-9.464a.702.702 0 1 1 .498 1.313c-3.82 1.456-6.811 4.655-8.002 8.56a.702.702 0 0 1-.669.496" fill="#FFFFFE" opacity=".56"/><path d="M179.207 364.138c0 1.976-1.685 3.576-3.766 3.576h-34.963c-2.079 0-3.766-1.6-3.766-3.576v-60.796c0-1.973 1.687-3.575 3.766-3.575h34.963c2.081 0 3.766 1.602 3.766 3.575v60.796" fill="#FFF"/><path fill="#57BEC3" d="M140.958 359.22h33.974v-50.96h-33.974z"/><path d="M164.314 306.138h-12.738a1.061 1.061 0 1 1 0-2.125h12.738a1.064 1.064 0 1 1 0 2.125" fill="#57BDC3"/><path d="M155.19 330.984a1.06 1.06 0 0 1-.752-.31l-10.721-10.722a1.063 1.063 0 0 1 0-1.501 1.055 1.055 0 0 1 1.499 0l10.724 10.721a1.058 1.058 0 0 1 0 1.502c-.207.207-.478.31-.75.31M151.576 316.753c-.273 0-.543-.103-.75-.31l-4.457-4.454a1.063 1.063 0 0 1 0-1.5 1.058 1.058 0 0 1 1.502 0l4.453 4.453a1.058 1.058 0 0 1 0 1.501 1.06 1.06 0 0 1-.748.31M157.802 322.981a1.06 1.06 0 0 1-.75-.31l-3.324-3.323a1.058 1.058 0 0 1 0-1.502 1.058 1.058 0 0 1 1.501 0l3.324 3.324a1.063 1.063 0 0 1-.751 1.811" fill="#FFFFFE" opacity=".4"/><path fill="#F6D35B" d="M102.993 59.27h49.896V23.841h-49.896z"/><path d="M104.189 58.073h47.507v-33.04h-47.507v33.04zm-2.39 2.39h52.284V22.649H101.8v37.814z" fill="#F5D25B"/><path fill="#FFF" d="M152.454 9.686L102.98 16.15l-.96-7.36 49.475-6.465.96 7.36"/><path d="M103.359 9.818l.65 4.995 47.106-6.154-.65-4.997-47.106 6.156zm-1.406 7.671l-1.273-9.73L152.52.986l1.274 9.73-51.841 6.774z" fill="#98887A"/><path fill="#98887A" d="M107.306 15.585l5.355-.698 6.4-8.326-5.355.7-6.4 8.324M102.91 15.606l5.926-7.708-6.817.891.891 6.817M118.03 14.184l5.355-.7 6.404-8.324-5.359.7-6.4 8.324M128.757 12.784l5.355-.7 6.4-8.324-5.355.7-6.4 8.324M139.484 11.38l5.355-.697 6.4-8.324-5.355.698-6.4 8.324"/><path fill="#FFF" d="M102.993 24.272h49.894v-7.425h-49.894z"/><path d="M104.189 23.078h47.504v-5.037H104.19v5.037zm-2.39 2.39h52.281v-9.814H101.8v9.814z" fill="#98887A"/><path fill="#98887A" d="M152.542 24.272h-5.398l-7.427-7.425h5.4l7.425 7.425M141.725 24.272h-5.398l-7.427-7.425h5.4l7.425 7.425M130.91 24.272h-5.4l-7.427-7.425h5.4l7.428 7.425M120.09 24.272h-5.4l-7.421-7.425h5.397l7.425 7.425M102.993 17.885v6.387h6.39l-6.39-6.387"/><path fill="#FFF" d="M120.98 32.869v18.048l15.61-9.022-15.61-9.026"/><path d="M134.587 189.835h-.003l-13.679-.035a1.325 1.325 0 0 1 .003-2.652h.002l13.68.034a1.326 1.326 0 0 1-.003 2.653M153.229 189.883h-.003l-8.697-.021a1.326 1.326 0 0 1 .002-2.653l8.7.021a1.325 1.325 0 0 1-.002 2.653M202.964 190.01h-.003l-37.294-.095a1.327 1.327 0 0 1 .002-2.653h.003l37.295.096a1.325 1.325 0 0 1-.003 2.652M30.088 189.732h-.003l-13.682-.035a1.323 1.323 0 0 1-1.32-1.329c0-.732.594-1.323 1.326-1.323h.002l13.68.034a1.327 1.327 0 0 1-.003 2.653M48.727 189.78h-.003l-8.697-.022a1.33 1.33 0 0 1-1.324-1.332 1.327 1.327 0 0 1 1.326-1.32h.003l8.698.02c.735 0 1.326.598 1.323 1.33a1.326 1.326 0 0 1-1.326 1.323M328.903 189.602h-.002l-13.68-.035a1.325 1.325 0 0 1 .003-2.652h.003l13.68.034a1.327 1.327 0 0 1-.004 2.653M347.545 189.65h-.002l-8.7-.022a1.327 1.327 0 0 1 .002-2.652h.003l8.7.02a1.327 1.327 0 0 1-.003 2.653M397.28 189.777h-.002l-37.295-.096a1.327 1.327 0 0 1 .003-2.652h.003l37.294.095a1.325 1.325 0 0 1-.003 2.653M448.249 189.907h-.003l-39.78-.101a1.327 1.327 0 0 1 .003-2.653h.003l39.78.101a1.326 1.326 0 1 1-.003 2.653M184.94 232.867a.788.788 0 0 1-.772-.631 11.725 11.725 0 0 0-9.225-9.234.782.782 0 1 1 .307-1.536c5.3 1.059 9.4 5.165 10.46 10.465a.788.788 0 0 1-.77.936" fill="#FFFFFE"/><path fill="#3A3A39" d="M158.425 246.777l4.01 3.629-5.076 5.615-4.01-3.645 5.076-5.6"/><path d="M135.592 270.514c-.21.234.053.81.594 1.297l3.841 3.457c.53.48 1.136.687 1.34.453l18.666-20.594c.207-.225-.048-.812-.581-1.286l-3.849-3.488c-.539-.489-1.138-.688-1.348-.457l-18.663 20.618" fill="#E47172"/><path d="M160.322 223.416c6.207-6.851 16.809-7.38 23.658-1.178 6.862 6.218 7.395 16.812 1.172 23.672-6.207 6.851-16.796 7.39-23.658 1.175-6.86-6.21-7.384-16.81-1.172-23.669zm-3.626-3.278c-8.024 8.854-7.35 22.549 1.52 30.567 8.862 8.032 22.544 7.353 30.575-1.52 8.016-8.856 7.335-22.538-1.522-30.57-8.862-8.024-22.555-7.332-30.573 1.523z" fill="#FFFFFE"/><path d="M172.749 218.957a15.73 15.73 0 0 0-11.647 5.162 15.598 15.598 0 0 0-4.05 11.324 15.588 15.588 0 0 0 5.143 10.867 15.668 15.668 0 0 0 10.533 4.064c4.43 0 8.679-1.884 11.652-5.167a15.601 15.601 0 0 0 4.048-11.321 15.615 15.615 0 0 0-5.154-10.87 15.636 15.636 0 0 0-10.525-4.059zm-.021 33.507c-4.42 0-8.656-1.634-11.937-4.602a17.71 17.71 0 0 1-5.83-12.316 17.703 17.703 0 0 1 4.586-12.833 17.848 17.848 0 0 1 13.202-5.846c4.419 0 8.658 1.631 11.931 4.597a17.703 17.703 0 0 1 5.838 12.318 17.683 17.683 0 0 1-4.591 12.83 17.852 17.852 0 0 1-13.2 5.852zm.026-38.398a20.652 20.652 0 0 0-15.284 6.774 20.466 20.466 0 0 0-5.307 14.847 20.436 20.436 0 0 0 6.756 14.241 20.534 20.534 0 0 0 13.814 5.337h.003a20.658 20.658 0 0 0 15.28-6.78c7.616-8.414 6.964-21.467-1.45-29.096a20.543 20.543 0 0 0-13.812-5.323zm-.018 43.29h-.003a22.6 22.6 0 0 1-15.218-5.876c-4.496-4.064-7.135-9.637-7.437-15.69a22.49 22.49 0 0 1 5.843-16.353 22.746 22.746 0 0 1 16.833-7.461 22.649 22.649 0 0 1 15.218 5.862c9.268 8.406 9.984 22.782 1.597 32.048a22.746 22.746 0 0 1-16.833 7.47z" fill="#FFFFFE"/><path d="M136.704 270.846c.047.058.106.125.185.194l3.841 3.453c.067.064.135.114.194.157l17.997-19.855a2.406 2.406 0 0 0-.164-.172l-3.857-3.496a3.162 3.162 0 0 0-.202-.162l-17.994 19.881zm4.403 6.016c-.557 0-1.21-.297-1.78-.82l-3.843-3.453c-1.04-.945-1.308-2.059-.672-2.77l18.669-20.623c.602-.668 1.825-.525 2.822.382l3.846 3.488c.605.533.969 1.183.998 1.772.021.377-.101.735-.345.997l-18.66 20.587c-.245.278-.613.44-1.035.44z" fill="#E37172"/><path d="M137.56 273.485a.784.784 0 0 1-.578-1.318l7.234-7.799a.784.784 0 0 1 1.15 1.067l-7.233 7.798a.773.773 0 0 1-.573.252" fill="#FFFFFE" opacity=".45"/><path fill="#DF4E4D" d="M40.125 89.073l-11.058-3.156-11.056 3.156v-32.38h22.114v32.38"/><path fill="#E46D6B" d="M30.647 85.917l-12.636 3.156v-32.38l12.636.293v28.93"/><path d="M51.406 55.283c0 2.708-4.8 4.445-5.777 6.8-1.01 2.441 1.117 7.054-.722 8.895-1.838 1.84-6.456-.29-8.893.721-2.356.976-4.093 5.78-6.802 5.78-2.71 0-4.445-4.804-6.8-5.78-2.441-1.01-7.056 1.12-8.892-.721-1.84-1.841.287-6.454-.727-8.894-.973-2.356-5.777-4.093-5.777-6.801 0-2.709 4.804-4.443 5.777-6.801 1.014-2.44-1.114-7.054.727-8.892 1.836-1.84 6.451.29 8.891-.724 2.356-.976 4.09-5.777 6.801-5.777 2.709 0 4.446 4.801 6.799 5.777 2.44 1.013 7.058-1.117 8.896.724 1.839 1.838-.289 6.451.722 8.892.976 2.358 5.777 4.092 5.777 6.8" fill="#E4BC2A"/><path d="M20.618 70.622c.846 0 1.533.114 2.098.348 1.21.501 2.2 1.75 3.157 2.96 1.074 1.355 2.183 2.759 3.34 2.759 1.15 0 2.262-1.404 3.339-2.76.958-1.206 1.947-2.458 3.16-2.96 1.073-.445 2.806-.355 4.471-.169.78.087 1.515.167 2.189.167.97 0 1.6-.175 1.976-.549.758-.756.567-2.49.382-4.167-.175-1.576-.353-3.204.17-4.472.5-1.207 1.75-2.2 2.96-3.157 1.358-1.074 2.756-2.186 2.756-3.34 0-1.153-1.398-2.262-2.756-3.339-1.207-.957-2.46-1.947-2.96-3.156-.523-1.268-.345-2.897-.17-4.475.185-1.674.376-3.406-.382-4.162-.377-.374-1.006-.55-1.976-.55-.677 0-1.409.08-2.191.168-1.663.18-3.4.276-4.47-.172-1.212-.502-2.201-1.751-3.159-2.96-1.077-1.356-2.188-2.757-3.34-2.757-1.156 0-2.265 1.4-3.34 2.756-.957 1.21-1.946 2.46-3.158 2.96-1.077.449-2.807.356-4.472.17-.78-.085-1.515-.164-2.189-.164-.97 0-1.602.175-1.976.549-.759.756-.568 2.488-.382 4.162.175 1.578.356 3.207-.17 4.475-.5 1.21-1.75 2.199-2.96 3.156C9.21 53.02 7.81 54.13 7.81 55.283c0 1.153 1.4 2.265 2.756 3.34 1.21.957 2.46 1.949 2.96 3.158.526 1.268.345 2.897.17 4.473-.186 1.676-.377 3.408.382 4.164.374.374 1.005.55 1.976.55.677 0 1.411-.08 2.191-.168.788-.088 1.608-.178 2.374-.178zm8.594 7.645c-1.917 0-3.273-1.706-4.578-3.356-.83-1.05-1.69-2.138-2.525-2.48-.761-.318-2.244-.217-3.69-.06-.787.087-1.602.177-2.366.177-.894 0-2.185-.106-3.093-1.013-1.294-1.295-1.06-3.409-.835-5.454.151-1.38.313-2.804-.061-3.695-.342-.83-1.427-1.692-2.48-2.525-1.65-1.31-3.356-2.66-3.356-4.578 0-1.915 1.706-3.268 3.356-4.576 1.053-.833 2.138-1.695 2.48-2.528.374-.888.212-2.313.06-3.692-.225-2.045-.458-4.162.836-5.454.908-.91 2.2-1.013 3.093-1.013.764 0 1.579.09 2.364.178 1.445.159 2.928.254 3.692-.061.833-.345 1.695-1.433 2.525-2.483 1.308-1.647 2.66-3.356 4.578-3.356 1.918 0 3.268 1.709 4.576 3.359.833 1.047 1.695 2.135 2.528 2.48.764.315 2.244.22 3.692.06.785-.087 1.602-.177 2.364-.177.894 0 2.185.103 3.093 1.013 1.297 1.292 1.06 3.409.832 5.454-.148 1.38-.31 2.804.064 3.692.342.833 1.43 1.695 2.48 2.528 1.647 1.308 3.356 2.66 3.356 4.576 0 1.917-1.709 3.27-3.358 4.578-1.048.833-2.136 1.692-2.478 2.522-.374.894-.212 2.319-.064 3.695.229 2.048.465 4.162-.832 5.457-.908.907-2.2 1.013-3.093 1.013-.762 0-1.579-.09-2.364-.178-1.445-.156-2.928-.257-3.692.061-.833.342-1.695 1.43-2.528 2.483-1.308 1.647-2.658 3.353-4.576 3.353z" fill="#E4BC2B"/><path d="M42.236 55.283c0 7.432-6.024 13.456-13.456 13.456-7.432 0-13.454-6.024-13.454-13.456 0-7.433 6.022-13.457 13.454-13.457s13.456 6.024 13.456 13.457" fill="#F6D35B"/><path d="M37.968 50.397a.786.786 0 0 1-.647-.337 12.711 12.711 0 0 0-8.628-5.295.789.789 0 0 1 .215-1.562c3.899.541 7.437 2.71 9.708 5.955a.79.79 0 0 1-.194 1.098.801.801 0 0 1-.454.14" fill="#FFF" opacity=".4"/><path d="M415.85 159.737c0 9.124-7.392 16.514-16.511 16.514-9.125 0-16.512-7.39-16.512-16.514 0-9.122 7.387-16.515 16.512-16.515 9.12 0 16.512 7.393 16.512 16.515" fill="#F6D35B"/><path d="M399.339 143.877c-8.746 0-15.86 7.117-15.86 15.86 0 8.748 7.114 15.86 15.86 15.86 8.743 0 15.86-7.112 15.86-15.86 0-8.743-7.117-15.86-15.86-15.86zm0 33.03c-9.467 0-17.167-7.703-17.167-17.17 0-9.467 7.7-17.167 17.167-17.167 9.464 0 17.167 7.7 17.167 17.167 0 9.467-7.703 17.17-17.167 17.17z" fill="#F5D25B"/><path d="M403.315 173.564a.492.492 0 0 1-.47-.352.488.488 0 0 1 .332-.608c3.329-.992 6.215-3.313 7.91-6.369a.49.49 0 0 1 .666-.19c.241.13.323.43.19.668-1.816 3.276-4.912 5.766-8.487 6.83a.42.42 0 0 1-.141.021M386.24 155.53a.485.485 0 0 1-.464-.655 14.367 14.367 0 0 1 10.046-9.107.483.483 0 0 1 .588.359c.072.26-.09.53-.35.594a13.394 13.394 0 0 0-9.363 8.485.484.484 0 0 1-.456.324" fill="#FFFFFE" opacity=".56"/><path d="M409.503 160.097c0 5.616-4.551 10.162-10.164 10.162-5.61 0-10.162-4.546-10.162-10.162 0-5.612 4.552-10.161 10.162-10.161 5.613 0 10.164 4.549 10.164 10.161" fill="#F9E597"/><path d="M398.769 165.845v-1.504c-.868-.01-1.76-.28-2.279-.655l.355-.994c.536.358 1.31.639 2.144.639 1.058 0 1.774-.61 1.774-1.459 0-.817-.583-1.324-1.681-1.772-1.518-.597-2.457-1.281-2.457-2.573 0-1.236.876-2.175 2.244-2.395v-1.504h.923v1.438c.894.034 1.504.273 1.937.525l-.374.981a3.575 3.575 0 0 0-1.87-.506c-1.149 0-1.584.69-1.584 1.283 0 .772.552 1.162 1.846 1.695 1.533.626 2.31 1.398 2.31 2.725 0 1.177-.819 2.278-2.35 2.53v1.546h-.938" fill="#FFFFFE"/><path d="M113.054 187.336c0 15.07-12.213 27.284-27.284 27.284-15.064 0-27.282-12.215-27.282-27.284 0-15.071 12.218-27.281 27.282-27.281 15.071 0 27.284 12.21 27.284 27.281" fill="#4CBAD4"/><path d="M96.173 169.657c-.058-.01-.082.077-.01.085.1.016.071-.072.01-.085zm-8.865 17.138a.282.282 0 0 0 .175 0c0 .008 0 .016 0 0-.005-.048-.002-.021 0 0-.024-.103-.53-.196-.175 0zm.94.08a.358.358 0 0 1 .068.034c.369 0 .135.016-.069-.034zm-.094-.035a.236.236 0 0 1-.092-.06c.342-.476.56-.255 1.416.036.435.133-1.037.252-1.438.101 0-.085.056-.09.114-.077zm3.984-7.782c.006.002.006.008.014.013.244.109-.014-.027-.014-.013zm-5.153-10.568h.008c.018.003.005 0-.008 0zm-13.144 4.544c.045-.048.2-.387.043-.409.024.18.018.343-.043.409zm.043-.409v-.008c-.003 0-.003.003-.006.006l.006.002zm18.355 6.573c0-.026-.034-.008-.013-.008.01.003.01.006.013.008zm-.22-.085c0 .016.016.027.053.038-.01-.008-.077-.101-.053-.038zm-1.01 10.197c-.162-.186-.133-.085-.083.016.064.008.101.005.082-.016zm-6.032 16.016c-.157.185-.059.342.082.448.018-.04.032-.061.034-.066-.156-.101-.177-.234-.116-.382zm.334 1.756c-.019-.01-.035-.021-.053-.03.024.014.045.027.053.03zm3.565-18.472l.016-.022c-.035-.002-.035.008-.016.022zm-2.14-4.035c-.017.093-.033.17-.054.273a.956.956 0 0 0 .053-.273zm1.418-2.578c-.008.01-.016.016-.026.024.048-.003.045-.016.026-.024zm-3.307 3.549c.008.085-.234.586-.44.963.392.291.628.124.44-.963zm3.976-16.247s0 .003-.003 0c-.265-.058.48.435.003.003v-.003zm-3.07 34.236c.054-.063.104-.124.157-.188-.029.008-.058.019-.082.01a.833.833 0 0 1-.074.178zm-.233.274c.035-.032.059-.07.093-.104a.505.505 0 0 0-.093.104zm.234-.274c-.045.056-.096.114-.14.17.044-.045.095-.087.14-.17zm-.496 3.518c-.04-.035-.101-.077-.207-.175.074.071.14.127.207.175zm-11.671-34.765h.002c.006 0 .006.003.01.003-.004 0-.007-.003-.01-.005l-.002.002zm-6.754-3.771c.022-.008.04-.016.064-.027.024-.05.013-.053-.064.027zm30.563 25.93c.093.014.032.009-.013 0h.013zm-9.528-27.164c.045-.013.08-.029.125-.04-.072.006-.107.022-.125.04zm-2.16 39.77c.04-.008.075.008.102.05.103-.085-.038-.077-.101-.05zm-.312-.223c.082 0 .124.002.14.008-.01-.008-.01-.03.05-.072.147-.069-.076.005-.19.064zm-.218-.663c-.018-.075 0 0-.005.04.018.007.018-.003.005-.04zm-3.185-37.271h-.006c.061-.021.112-.016.154.018.056-.045-.04-.045-.148-.018zm-1.3 2.411c-.212-.064-.372.085-.555.16a.607.607 0 0 1 .305-.112c-.026-.003-.055-.006 0 0 .11.01.229-.024.25-.048zm-.693.318c-.013.016-.71-.358-.787-.392 0 .151.22.62-.332.488.44.419.761-.21 1.12-.096zm-1.183-2.172c-.222-.013-.904-.14-.482-.22-.29-.093-.743.008-1.037.085.19.026.37.108.517.135-.555-.072.016.202.732.204h.011c.076 0 .193-.111.26-.204zm-2.217 6.886c0-.438-.098-.406-.348-.578.027.199.303.7.348.578zm-.936-8.817c-.488.178-.11.085-.099.082.024-.018.061-.05.099-.082zm-.255-.058c-.01-.006-.024.007-.037.005-.01-.003-.016-.003-.003 0-.01 0-.024.002-.026.008.008-.006.026-.008.042-.006.01 0 .013-.005.024-.007zm-8.69 4.695c-.01-.04-.04-.048-.013-.014.003.008.008.008.013.014zm-.22-.048c.032-.003.056-.008.082-.008.085-.074-.06-.008-.082.008zm18.25 5.639c1.029-.093.586.263 1.652.263-.005.087.032.138.117.148-.226-.955-.785-.79-1.536-.52a1.24 1.24 0 0 0-.233.109zm2.928 1.743c.053.037.095.029.151.029 0-.008-.013-.01-.03-.016a.43.43 0 0 0-.121-.013zm.679 1.984c.14-.565-.281-.833 0 0zm-.676-1.846c-.401 0-1.258.459-.44.146.047-.022.039-.016.023-.011.133-.042.295-.08.417-.135zm-.9.146c-.092-.077-.199-.117-.026-.014.01.008.018.008.026.014zm-1.135-1.191c.239 0 .26.071.212.148l.425-.27c.225-.09-.488-.059-.637.122zm-.334-7.038c.003.048.04.059.095.035a.15.15 0 0 0-.095-.035zm.886-.742c.04.047.143.156.262.196a1.769 1.769 0 0 1-.164-.138c.003.005.005.008-.003-.003-.05-.053-.066-.055-.095-.055zm1.567-1.68a.135.135 0 0 0-.132-.026c.013.008.016.019.032.019.013 0 .058.002.1.008zm.09-.54c-.04-.056.075-.157-.042-.207.027.029.008.047-.053.06-.117 0 .096.147.096.147zm-.731-.085a1.285 1.285 0 0 0-.308-.07.58.58 0 0 0 .17.06c-.014-.004-.03-.004.008 0l.13.01zm1.885-.4c-.045.081.382.225.526.27.15 0-.491-.348.114-.04-.194-.196-.101-.507-.64-.23zm1.504.652c.016 0 .075-.024.016-.024-.008.008-.013.018-.016.024zm1.038 2.549a1.349 1.349 0 0 1-.335-.239c-.387.239.173.26.335.239zm-.372-2.138c.032.034.077.034.13 0a.27.27 0 0 0-.13 0zm.178.127c.111 0 .14-.071.019-.01-.008.002-.011.002-.019.01zm.35 3.26a.494.494 0 0 1 .077.117c-.016-.04-.03-.074-.048-.104-.018-.026-.018-.02-.029-.013zm-1.13 5.711a.09.09 0 0 1-.093-.01c-.047.042.053.044.093.01zm2.992-1.626c.045.04.101.034.154-.01-.016 0-.03.007-.042.007-.077 0-.13-.02-.112.003zm3.828 17.812c-.446-.061-4.175 8.721-7.112 7.254-1.246-.286-3.063 5.032-3.843 5.26.14.085.39.191.111.218-.045-.016-1.201.36-.708.026a.868.868 0 0 1-.533-.124c.074.008-.239-.398-.003-.398-.06-.106-.148-.175 0-.356-.538.29-.244-.283-.41-.106-.035.027.023-.122.06-.18l-.042.04a4.48 4.48 0 0 1 .143-.308c.217.16.525.191.172.008-.055-.021-.095-.048-.138-.074l.003-.003c-.016-.05-.18-.353.095-.56a.86.86 0 0 0-.214.18c.214-.543 1.459-1.35 1.071-2-.047-.013-.098.003-.138.022 3.409-4.525-.522-13.308-1.114-14.682.053.154-4.384-3.363-6.225-5.514.262.525.464 1.01.302 1.145-.398.324-3.851-7.811-3.629-9.01.043-.337.006-.618-.472-1.332-.008-.1-.291-.83-.262-.846-.167-.045-.122-.223-.356-.392-.06 0 .093.363.146.416.135.485-.132.422-.122.459-.05-.353-.323-.862-.193-1.016.018-.016.023-.016.034-.035a1.36 1.36 0 0 1-.135.077c-.006-.066-.021-.135-.032-.204a5.539 5.539 0 0 1-.252-.122c.13.064.202.1.252.122-.05-.233-.111-.464-.165-.56a.55.55 0 0 1-.015.292c.047-.002.098 0 .071.014-.029.034-.058.037-.087.023-.024.059-.056.101-.067.104-.795-.395-2.82-1.409-2.809-1.488.048-.361-1.207.575-1.48.39.053.05.074-.536.33-.711-1.067.517-1.587 1.926-3.06 1.814.088 0-.347.043-.328-.018.138-.313 2.154-.86 1.387-1.231-.172 0-1.138.066-.947-.13-1.607.49.066-2.09.215-2.422 3.42-1.674 6.21-.459 8.788-1.103 1.05 0 .39.122 1.45.27-.081-.032-.07-.069-.081-.13 0 .138 4.177 1.624 4.474 2.03.006-.011.011-.017.03-.014-.083-.464-.414-.926.543-.78a.272.272 0 0 1-.108-.164c-1.287.315-4.271-.913-1.587-.743-.631-.252-2.41-.801-1.098-1.387-1.422.36-.923.443-2.292.21.11-.088.12-.13.019-.133-.48-.096 4.241-.828 4.316.215.403-.053.864-.605 1.329-.31.252.166-.237 2.081.806 2.233-.997-.106-.043.223-.196.244-.316.045-.69-.04-1.104-.14.788.61 1.517.62 1.987.493-1.305-.783 1.244-.038.552-.038-.337 1.014.307.08.459.022-.592 0-.138-2.422.145-2.57.152-.08 1.226.14 1.21.275-.098.053-.103.098-.019.138-.347 1.992-.957 1.53.404 3.146a.543.543 0 0 1 .246-.106c-.177.125.197-.81.05-.112.152-.214.311-.3.46-.448-1.122-.865-1.557-1.719.188-2.305-.019.021.01.056.103.098-1.448.515.178.342.144.337-.075 0-.173-.19-.231-.196.087.003.146.056.225.03-.071 0-.116-.046-.138-.152 1.037-.098 1.767.56 2.18.713.258.191.735.38.547.786.085-.12.223-.024.212-.048-.008-.032-.024.14-.024.148.396-.461 1.68.953 1.401.953-.138-.043.64 1.435.851 1.833-.084-.088-.27-.059-.4.885.03.05.056.258-.003.085 0 .067-.029.255-.082.07.005.06-.074.217.019.278-.175-.146-.106.08-.016.135.053.04-.698-.053-1.518-.281 0 .005.006.013-.005.024-.013.029-.111-.03-.162-.074-.75-.226-1.525-.565-1.787-1.027.008-.111.026-.223.053-.332.978-.612 1.875-.496 1.427-1.127-.149-.239-.937-.83-.852-.793-.586-.47-.445-.236-.99-.326v-.003s0 .003-.002 0a3.667 3.667 0 0 1-.424-.1c.448.153-.045 1.222-.73 1.49.213.49-.108.072-.56-.01.303.182-1.575 1.535-1.798 1.342-1.825 1.75 3.088 4.639 2.955 4.721-.384-1.411 1.35-2.53.801-3.99-.1-.352 2.586.574 2.128.9-.231.069.249 1.493.893.997 0-.077.263-.374.26-.376-.294-.42.404.482.467.615.512-.149 1.762 2.345 1.321 3.23.082-.023.817.266.616.367.103.01.283.159.119.289.019.003-.43.788-.43.255-1.292.899-.82-.817-.31-1.372-.573.334-1.21.226-1.828.17.064.024.136.05.197.098-.03-.026-.05-.048.01.01.151.13.287.157.189.202-.024.014-.099-.013-.186-.045.146.112.26.14.172.18-.47.21-.509-.352-.57-.456-.512-.031-1.005.003-1.443.382.42-.249.976-.4 1.393-.085.015.011-.083.467-.075.812-.002-.003-.013-.008-.018-.01.01.015.016.015.02.026.012.27.091.462.362.3.496.06 1.138.074.278.201-.069-.005-2.143.913-.918-.135-1.509-.095-1.514 1.019-1.522 1.024.018-.019-1.825.228-1.544.557.146.35-.255.86-.49 1.109-.035-.01-.107-.016-.088.026.029 0 .048 0 .06-.002a1.474 1.474 0 0 1-.126.124c-.81.709-.942.958-1.266 2.43.093-1.284-2.785-1.424-2.822-1.446-3.1-2.307-.65 2.528.493 3.38-.116.207-.22.379-.262.408 1.058.759 4.368 1.464 4.496 1.59.024.02-.53.835-.157.856-.252-.027.324-.666.393-.753.132.103 1.668.655 2.05.716.027.055.061.111.064.122.623.713 3.992 4.61 6.393 5-.035-.006-.056-.008.013 0zm-5.387-15.512l-.022-.01c0 .004 0 .012.003.015.103.16.138.053.019-.005zm-16.64-11.467c.003.002.008.002.016.002l-.013-.002h-.003zm3.186 2.188h.003-.011.008zm14.583 2.128c.027.053.048.087.054.098 0-.024-.022-.07-.054-.098zm14.897 5.623c-.037 0-.077.024-.053.034.03.011.085-.034.053-.034zm.16 1.183c.015.008.05-.104.034-.088-.035.048-.045.083-.035.088zm-4.056-4.409h-.003c-.016.003-.016.003.003 0zm-.022-.843c0-.01-.008-.013-.013-.016.01.026.013.024.013.016zm-.018.117c-.021-.003-.03-.016-.019.008.013.034.013.015.019-.008zm.528.031c-.059-.047 1.212-.002 1.543-.111.751-.183-1.88.743-2.037.806-.289-.005-.005-.122.093-.172-.225.053-.82-.23-.148-.212.087.05-.56-.47-.229-.47-.008-.002.321-.185.778.16zm-9.931 5.695a.247.247 0 0 1 .076-.042c-.06.072-.132.207-.095.183.032-.034.377-.541.347-.525a.674.674 0 0 0-.328.384zm-6.337 6.865c-.003.045.09.085.1.043.014-.043-.1-.088-.1-.043zm3.485-20.247c-.061-.02-.252-.06-.207-.037.053.03.234.05.207.037zm-11.215-1.244c.1.014-.048-.092-.186-.098-.132 0 .056.08.186.098zm-.024.133c-.042-.003-.085-.016-.124-.027l.002.022a.86.86 0 0 1 .122.005zm-.456.406c-.952.607 1.493 1.26 2.536.501-.016-.058-.008-.103.024-.138-.154.098-.706-.376-.735-.806a.6.6 0 0 0-.416.21c.313-.168-.68 1.24-1.075-.178-.424-.008-1.055.283-.334.41zm9.411 4.363c-.074-.032-.201.024-.175.03.061.026.25.005.175-.03zm-.045-2.939c.003 0 .008 0 .01.003.035 0 .003-.003-.01-.003zm-2.75-.663a.22.22 0 0 0-.184-.013c-.053.013.09.018.183.013zm2.594 1.016c-2.019 0-2.573-.963-4.255-1.536-.037-.013.077-.122.048-.122.013.003 1.522.337 1.403.324.369.069.207.026.453.204a2.069 2.069 0 0 0-.477-.064c.629.101 1.854.648 2.984.841-.016-.005-.021-.005.01.003.006 0-.09.3-.166.35zm-1.324 5.451c.138-.056.286-.125.467-.236.143-.098-1.08-1.072-1.072-1.096.006-.042-.737 1.862.59 1.337-.256.47-.07.189.015-.005zm-.47-1.321c.043-.019-.1-.194-.11-.149-.014.038.026.189.11.149zm-1.713-4.889c.013.014.024.022-.008-.016a1.848 1.848 0 0 0-.268-.172c-1.289-.454.822.798.276.188zm1.788 9.841c-.146.085-.077.14.199.16.034-.125-.128-.16-.2-.16zm-2.891-8.66c-.168-.03-.104-.629-.98-.732.558.085-.546.7-.509.44a.202.202 0 0 1-.018.14c-.106 1.123 2.069.804 1.663.192-.133-.279-.268-.207-.156-.04zm.806-1.605c-.064.01.008.12.093.103.066-.005-.03-.106-.093-.103zm1.273-.157c.07.038.146-.029.064-.11-.07-.078-.128.073-.064.11zm-1.703-.994c.175-.021.31-.008.417.018a3.876 3.876 0 0 1-.57-.466c-.035-.03-.07.28.153.448zm4.645 1.663c-.043-.013-.204.03-.16.06.054.04.253-.015.16-.06zm1.93 7.549c-.042-.037-.15.024-.13.056.03.042.173-.01.13-.056zm-17.32.005c-.581.088-.064.602.12.698-.014-.01-.025-.013.002 0 .069.03.026.008-.003 0-.204-.103-.223-.676-.12-.698zm-9.55-.963c.24.011.367-.114.367-.273.013-.055-.43.26-.366.273zm4.28-1.517c-.3.218-.327.276-.083.186-.851.52-.239.239-.064.239.183.14.2-.451.146-.425zm1.333-.284c.019.03.218-.127.2-.14-.04-.037-.218.111-.2.14zm38.3 9.597c-.026.019-.95-.085-.867-.034.18.095-.037.085-.037.135.071.042.042.18-.01.133 1.18 1.424-3.202 4.18-4.393 7.36 0 .775-.348 1.658-.244 2.335-.016.037.785 1.58.965 1.745 5.348 4.111 3.39-6.782 4.44-7.623-1.403 1.252.443-1.976.146-4.05zm-.795-2.488c-.008.003.344.154.185-.453-.13.212.117-.39-.116.037-.072.138-.038.406-.07.416zm.27 1.56c-.143.021-.668.459-.273.276.456-.34.488.337.228-.82-.143.109-.337.393.045.544zm-.071-.65l.026.106c.042-.032.08-.05.1-.045-.028-.045-.119-.03-.126-.061zm-1.526.27c-.276.173 1.295-.708 1.327-.716-.099-.06-.09-.106.018-.138-.042.019-.151-.267-.13-.246-.772-.844-1.52 1.289-1.215 1.1zm-18.867 7.154h-.003c.01.003.027.014.003 0zm0 0c.018.008-.907-1.01-1.942-1.045.411.136 1.045.833 1.565.852.027.215-.098-.056.374.193-.013-.008-.021-.013.003 0zm-2.178-1.047c.074-.01.157 0 .236.002-.09-.029-.175-.045-.236-.002zm.321-.08a.65.65 0 0 1 .247.005c.018.006-.093-.02 0 0 .018.006.042.011.071.014-.114-.067-.22-.072-.318-.019zm4.472 2.005c-.148-.177-.276-.185-.387-.015.149.02.456.06.387.015zm-5.055 19.894c-.027-.042-.332-.23-.287-.19.04.04.324.233.287.19zm-.388-.551c-.005-.006-.005-.008.014.013.145.143-.02-.027-.014-.013zm23.022-28.94c.01.016.023.009.034-.031-.082-.016-.111.23-.034.032zm.225 1.014c.016.005.053-.101.042-.082-.042.04-.047.071-.042.082zm-19.838 7.453c0 .046.095.096.106.04.01-.037-.106-.082-.106-.04zm.827-16.273c.048.008.186-.069.231-.13.1 0 .16 0 .003-.002.016-.019.018-.035.002-.048-.026-.019-.082.013-.13.048h-.084c.02.002.05.002.082.002-.074.059-.135.13-.104.13zm2.457-4.005c.053.026.23.042.204.037-.064-.024-.255-.061-.204-.037zm-8.467 3.27c.045.011.069-.106 0-.08-.061.027-.035.07 0 .08zm-2.088-5.352a.469.469 0 0 0-.135-.014c.106.104.164.09.135.014zm.021.6c1.793.54-.61-1.282-.143-.749a.373.373 0 0 1 .122.149c.07.01.13.031.188.074-.254.024-.8.337-.167.525zm-.57-.569c-.074.112-.554.335.069.298.042-.006-.005-.197-.069-.298zm-.066-.06c.024.002.045.026.066.06.021-.031.016-.055-.066-.06zm7.135 7.119c-.045-.043.064.241.188.225.114-.018-.14-.183-.188-.225zm.239 5.34c-.093-.17-.178-.208-.265-.107-.022-.016-.035-.032-.003 0 .03.027.018.016.005.006.067.058.252.148.263.1zm-4.258-7.12c.372 0-.092-.01-.018-.003-.003.003.005.003.018.003zm-5.3-4.363c1.338-.433.95.297.804.175.144.04.141.087-.018.135.241.204.61-.199.374-.154.159-.156.613-.631.713-.658-.135-.05-.13-.095.016-.138-.276.077-1.915.632-1.907.642-.008.006-.016.008.019-.002zm8.47.551c-.026.014-.024.01-.008.008.008 0 .671-.252.008-.008zm3.332-1.872c.003.008.003.01.005.023.013.027-.002-.018-.005-.023zm.024 2.573l-.006.005c0 .005 0 .005.006-.005zm-1.653-.722c-.008 0-.01 0 0 0zm-.241-.857c.029-.01.05-.02.077-.032-.019.006-.04.008-.053.011-.032.01-.032.013-.024.021zm.14.44c.019-.005.03-.018.05-.02.003-.011.014-.03.02-.062.005-.042-.022.019-.07.083zm.038-.628c.071.061.175.109.466.305-.069-.05-.236-.218-.329-.233.038 0-.005-.107-.137-.072zm.506.332c.303.238.207.047.149.047a.248.248 0 0 1-.149-.047zm.332.901c-.019-.008-.03-.02-.037-.023-.067.018-.04.023.037.023zm-.775-.188c.035-.008-.082-.013-.185-.003a.263.263 0 0 0 .185.003c.035-.003.01-.003 0 0zm1.061-1.626c.112.037.234.042.361.045.109-.1.286-.215-.061-.066-.03.013-.024.008-.008.002a.862.862 0 0 1-.292.02zm.568-.225c-.003-.006 0 0 .005.023.162.42-.045-.172-.005-.023zm.162 1.238c-.027-.002-.045.008-.064.03h.008c.01-.008.034-.02.056-.03zm-1.645-1.551a.9.9 0 0 0-.485.069 1.62 1.62 0 0 0 .448-.053c.021-.006.034-.011.037-.016zm-.125-.56c.014.034.04.05.08.048-.01-.008-.027-.016-.04-.027-.013-.01-.026-.013-.04-.021zm2.55.032c.08 0 .098-.01.058-.04-.019.008-.043.016-.059.04zm-5.579.849c-.106-.194.49-.17.183-.39a1.45 1.45 0 0 1 .114.04c-.12-.101.162-.26.486-.303-.263-.098.626.244-.04-.164.618.278 1.984.973 1.666 1.28-.019-.087 2.204-.24 1.382-.27a1.298 1.298 0 0 0-.167-.021c-.16-.016.22-.066.323-.09-1.464.262-2.546-.966-2.148-.974.302.024 2.419-.257 2.522-.21-.156-.22.403-.018.65-.018a.444.444 0 0 1-.358-.193c.191.111.684.177.92.183.035.029 2.05.445 2.693.318.074-.005-.16.05-.342.09 2.074.512 1.758.581-.327.857.475 0 1.66-.037.618.18.963-.021-1.331.555-1.467.605.308-.032-.355.12-.66.034.395.22-.7.2-1.122.16-.12-.006.371.18.225.074.597.355.626.658-.069.613-.323-.573-.44.7-.427.769-.087.297-1.594-.059-1.822-.135-.074-.019-2.265-.788-.568-.563-.384-.843.215.077.685-.175.262 0-1.228-.424-.284-.695-.045.016-.411.074-.533.035.024.172-.12.14-.149.132.07.008-1.146-.124-.936-.124-.432-.22-.708-.587.013-.518-.506-.382-.69.093-1.055-.52.002.011.005.016-.006-.005-.018-.029-.013-.018 0-.002zm-1.23 1.95c-.003-.003-.003-.006-.003-.006-.019-.003-.008 0 .002.005zm3.079 19.694c-.111-.013-.04-.002 0 0 .013.003.035.003 0 0zm2.316-18.703c.047.037.254-.01.15-.06-.036-.011-.198.031-.15.06zm-5.86-1.928c-.103.016.037.138.281.117.085-.008-.148-.122-.28-.117zm-.772.34c.138-.189.083-.367-.167-.534.22.13-.724.502.167.533zm8.587 9.14c.023.034.172-.019.13-.061-.043-.04-.152.024-.13.061zm-8.22-9.902c.1.024.17.056.14.01 0-.002 0-.002-.005-.002a1.393 1.393 0 0 0-.136-.008zm1.28.345c-.135.143-.355.13-.583.056-.236.016-.382-.104-.27-.112h.002c-.286-.143-.53-.326-.522-.308-.258-.132.289-.023-.125-.26.01.003.013.006-.01-.007-.895-.443 2.018-.032 1.509.63zm-1.498-.623c-.005-.003-.008-.003-.01-.008-.051-.027-.006 0 .01.008zm7.533 6.793c-.477-.7.1.17.008.013.003.003.003 0-.008-.013zm-7.576-5.324c0 .077.059-.048.133-.212-.162-.024-.334.008-.133.212zm.176-.103c.074.066.167.09.278.063.077-1.016-.16-.522-.32-.172.182.018.36.109.042.109zm6.509 4.618c-.085.005-.043.114.01.114.173.02.077-.117-.01-.114zm-5.743-4.55c-.016 0 .066.003 0 0-.178 0 .07.003 0 0zm.074.152a.517.517 0 0 0 .173.135c.029-.024.021-.053-.059-.085.027.005.05.019-.002-.005a.646.646 0 0 1-.112-.045zm.022-.136a.308.308 0 0 0 .183.096c-.006-.016-.024-.035-.075-.048-.01-.002-.013-.005-.01-.002l-.098-.046zm.183.398a.346.346 0 0 0-.096-.01c.027.018.05.032.064.026.01-.002.026-.008.032-.016zm-.984-.201c-.096-.032-.014-.043.106-.04.026-.005.042-.013.071-.021a.094.094 0 0 1-.029.024c.027 0 .053.005.08.005.063-.045.143-.077.14-.077-.018.005-.029.005 0 0 .16-.04.138-.164.019-.135 1.021-.295.835.61 1.048.774.164.279-1.706-.212-.929-.334-.286-.037-.353-.098-.34-.154-.04-.008-.071-.013-.095-.021-.159.085-.355.088-.071-.021zm-12.55 5.514c0 .03.101.064.11.027.004-.04-.104-.056-.11-.027zm-.331.202c.018.027.217-.133.201-.149-.04-.026-.225.117-.201.149zm33.512.615a.073.073 0 0 0-.035.008c-.09.037.019-.008.035-.008zm-7.096-.228c-.23-.215-.456-.082-.031-.01a.1.1 0 0 0 .031.01zm-.22.27c.019.003-.31-.068 0 0 .07.011-.045-.007 0 0zm-.159-.24c.027-.006.035.002.04.013a.149.149 0 0 0-.122-.056c.048.01.053.045.082.042zm.13-.33c-.024-.002.106.05.106.016-.045-.01-.045-.029-.106-.015zm-.09-.098c.196.077.268-.153.026-.002l-.026.002zm.109-1.077c.037.024.069.048.095.07-.064-.056-.132-.115-.095-.07zm6.283.998c.313.135.125-.093.189-.13-.027-.005-.189.124-.189.13zm.648-1.125a.198.198 0 0 0-.178-.026c-.13.063.188.029.178.026zm-.059-.14a.247.247 0 0 1-.08-.035c-.058.042.072.035.08.035zm.56-.048c-.024-.013-.053-.037-.077-.056-.151 0 .058.053.077.056zm-4.814 3.34c.077 0-.056.769-.393.681-.05-.019.07.066.133.122-.189-.154-.77 1.035-.95 1.21-.384.275-2.806-3.404-1.96-3.425-.21-.048-.226-.106.016-.159-.287-.045-.082-.021.05-.18-.167.05.409-.523.703-.565-.252-.088-1.485-.764-.788-.764.494.28.488-.059.433-.297.18-.024.055-.07-.014-.064-.018-.077-.037-.133-.034-.135-.504 0-.629-.194-.666-.212.366.198-3.193-2.947-3.796-3.345-.042-.022.801.116.388.018a3.589 3.589 0 0 1-.218-.122c-.053-.005-.122-.013-.148-.034-.038-.019.031-.008.1.008-1.554-.91 1.027-.385 1.698-.918a.414.414 0 0 1 .032-.255c-.125-.005-.756-.18-.68-.233.115-.013.12-.059.017-.14.509-.361 2.111-.608 2.605-.608-.12-.117.962-.255 1.228.43-.035-.242.185-.313.435-.282l-.09-.05c.037.019.066.037.09.05.222.027.464.136.546.282-1.228-2.332 4.464 3.886 5.926 5.376a.05.05 0 0 1-.021-.018c.461.448.14.488-.122.512.525.175.7.583.525.48 1.329 1.066-.536.347-.655.366.008.008.132.87.626.71.095.025.183.035.222.04.059.008-.379.144-.53.2.005-.006-.005 0-.035.007-1.798.72-3.657 1.21-4.673 1.313zm4.891-3.449a.952.952 0 0 1-.228-.162c.318.33.438.433.228.162zm-7.647.072c-.006-.019-.008-.045-.014-.064-.037.005-.055.019.014.064zm1.132-5.92a.314.314 0 0 0 .252.148c-.575-.35-.69-.42-.334-.197-.854-.464.26.189.082.048zm10.21 13.474c.318-.056-.074.03 0 0z" fill="#FFF"/><path d="M246.5 269.705a16.792 16.792 0 0 0-11.974-5.002 16.766 16.766 0 0 0-11.944 4.979l11.966 11.97 11.952-11.947" fill="#F6D35B"/><path d="M234.548 281.652l-11.966-11.97a16.762 16.762 0 0 0-4.889 11.856c0 4.682 1.916 8.918 5 11.969a16.778 16.778 0 0 0 11.833 4.867c.072 0 .141-.01.207-.013v-16.894l-.185.185" fill="#57BEC3"/><path d="M251.362 281.538c0-4.615-1.86-8.79-4.862-11.833l-11.952 11.947-.022 16.722c4.542-.056 8.86-1.915 11.857-4.886a16.794 16.794 0 0 0 4.979-11.95" fill="#DF4E4D"/><g fill="#FFFFFE" opacity=".54"><path d="M234.1 259.976a.637.637 0 0 1-.637-.64v-6.373a.635.635 0 0 1 1.27 0v6.374c0 .352-.28.639-.634.639M245.256 262.735a.632.632 0 0 1-.321-.085.643.643 0 0 1-.236-.87l3.188-5.526a.64.64 0 0 1 .873-.23.632.632 0 0 1 .233.87l-3.188 5.522a.633.633 0 0 1-.55.319M253.537 270.7a.639.639 0 0 1-.32-1.19l5.522-3.187a.63.63 0 0 1 .87.234.633.633 0 0 1-.234.87l-5.52 3.188a.644.644 0 0 1-.318.085M256.725 281.74a.638.638 0 0 1 0-1.276h6.38a.637.637 0 0 1 0 1.273l-6.38.003M259.492 296.082a.605.605 0 0 1-.316-.087l-5.522-3.186a.637.637 0 0 1 .636-1.104l5.523 3.189a.633.633 0 0 1 .236.87.64.64 0 0 1-.557.318M249.203 306.703a.645.645 0 0 1-.557-.321l-3.189-5.52a.636.636 0 0 1 1.103-.634l3.192 5.517a.634.634 0 0 1-.23.87.62.62 0 0 1-.32.088M234.975 310.753a.637.637 0 0 1-.637-.636l-.003-6.377c0-.35.284-.637.634-.637h.003c.353 0 .637.284.637.637l.002 6.377c0 .35-.284.636-.636.636M220.63 307.151a.63.63 0 0 1-.319-.085.646.646 0 0 1-.236-.872l3.186-5.523a.634.634 0 0 1 .867-.236c.31.178.414.565.237.873l-3.183 5.522a.637.637 0 0 1-.552.321M210.006 296.86a.64.64 0 0 1-.321-1.191l5.52-3.192a.63.63 0 0 1 .87.231.633.633 0 0 1-.228.87l-5.52 3.194a.63.63 0 0 1-.32.087M205.95 282.634a.637.637 0 1 1 0-1.276l6.377-.005a.637.637 0 0 1 0 1.276l-6.376.005M215.073 271.47a.63.63 0 0 1-.319-.086l-5.525-3.183a.635.635 0 0 1-.233-.87.635.635 0 0 1 .87-.233l5.525 3.18a.639.639 0 1 1-.318 1.191M223.03 263.177a.632.632 0 0 1-.551-.315l-3.194-5.52a.638.638 0 1 1 1.103-.64l3.197 5.518a.64.64 0 0 1-.555.957"/></g><path d="M312.893 151.24a7.032 7.032 0 0 1-7.035-7.034 7.031 7.031 0 0 1 7.035-7.032 7.033 7.033 0 1 1 0 14.067zm18.865-10.506l-3.425-.005a15.733 15.733 0 0 0-2.045-4.945l2.425-2.424c.87-.867.87-2.273.002-3.138l-1.814-1.817a2.214 2.214 0 0 0-3.135-.003l-2.425 2.427a15.657 15.657 0 0 0-4.944-2.055v-3.427a2.222 2.222 0 0 0-2.22-2.218h-2.565a2.218 2.218 0 0 0-2.218 2.218v3.427a15.749 15.749 0 0 0-4.867 2.005l-2.411-2.438a2.223 2.223 0 0 0-3.141-.013l-1.825 1.804a2.222 2.222 0 0 0-.016 3.138l2.414 2.435a15.886 15.886 0 0 0-2.074 4.933l-3.425-.01a2.213 2.213 0 0 0-2.225 2.21l-.016 2.564a2.219 2.219 0 0 0 2.212 2.226l3.42.016a15.65 15.65 0 0 0 2.039 4.947l-2.435 2.422a2.213 2.213 0 0 0-.008 3.137l1.804 1.82a2.22 2.22 0 0 0 3.138.01l2.435-2.416a15.747 15.747 0 0 0 4.936 2.07l-.01 3.424a2.219 2.219 0 0 0 2.212 2.225l2.565.005a2.219 2.219 0 0 0 2.228-2.21l.008-3.426a15.8 15.8 0 0 0 4.947-2.04l2.421 2.432c.863.87 2.271.87 3.138.006l1.817-1.81c.87-.867.873-2.27.006-3.137l-2.42-2.433a15.772 15.772 0 0 0 2.062-4.939l3.43.006a2.22 2.22 0 0 0 2.217-2.218l.002-2.565a2.218 2.218 0 0 0-2.214-2.22z" fill="#E47172"/><path d="M312.893 138.127a6.088 6.088 0 0 0-6.082 6.08 6.09 6.09 0 0 0 6.082 6.081 6.089 6.089 0 0 0 6.082-6.082 6.086 6.086 0 0 0-6.082-6.08zm0 14.069c-4.403 0-7.99-3.584-7.99-7.99 0-4.403 3.587-7.987 7.99-7.987 4.406 0 7.992 3.584 7.992 7.987 0 4.406-3.586 7.99-7.992 7.99zm-8.613 4.153l.642.412c1.43.91 2.99 1.562 4.642 1.941l.743.173-.014 4.188a1.268 1.268 0 0 0 1.26 1.268l2.565.005.006.952v-.952a1.27 1.27 0 0 0 1.267-1.26l.006-4.188.745-.167a14.76 14.76 0 0 0 4.65-1.918l.645-.403 2.96 2.97c.477.483 1.305.48 1.79.003l1.815-1.809c.238-.238.371-.557.374-.896 0-.337-.13-.653-.37-.892l-2.957-2.973.406-.642a14.768 14.768 0 0 0 1.937-4.642l.17-.745 4.193.008c.692 0 1.26-.565 1.263-1.266l.002-2.562c0-.697-.567-1.265-1.262-1.265l-4.189-.008-.164-.743a14.784 14.784 0 0 0-1.926-4.644l-.406-.645 2.966-2.965a1.255 1.255 0 0 0 .002-1.788l-1.811-1.817c-.483-.478-1.313-.48-1.788-.003l-2.968 2.968-.647-.41a14.766 14.766 0 0 0-4.642-1.932l-.743-.167v-4.188c0-.698-.568-1.266-1.265-1.266h-2.565c-.698 0-1.266.568-1.266 1.266v4.188l-.742.167c-1.61.363-3.149 1-4.573 1.886l-.645.406-2.95-2.982c-.474-.48-1.31-.48-1.787-.008l-1.828 1.804a1.268 1.268 0 0 0-.008 1.79l2.95 2.977-.409.642a14.936 14.936 0 0 0-1.952 4.639l-.172.743-4.183-.019c-.703 0-1.268.565-1.271 1.26l-.013 2.568c-.003.337.13.655.368.894.237.241.555.371.892.371l4.183.019.167.742a14.655 14.655 0 0 0 1.912 4.65l.409.647-2.979 2.958a1.253 1.253 0 0 0-.371.889c-.003.34.13.66.368.901l1.804 1.817c.475.48 1.316.486 1.788.011l2.976-2.958zm9.844 9.894l-2.576-.005a3.182 3.182 0 0 1-3.164-3.183l.01-2.682a16.637 16.637 0 0 1-3.838-1.607l-1.905 1.891c-1.193 1.196-3.291 1.188-4.49-.016l-1.804-1.817a3.167 3.167 0 0 1-.923-2.254c.005-.847.337-1.64.939-2.234l1.902-1.894a16.73 16.73 0 0 1-1.581-3.849l-2.677-.01a3.163 3.163 0 0 1-2.238-.934 3.161 3.161 0 0 1-.923-2.25l.013-2.567a3.17 3.17 0 0 1 3.17-3.16l2.695.009c.379-1.342.917-2.626 1.612-3.833l-1.888-1.907a3.176 3.176 0 0 1 .018-4.486l1.828-1.806c1.199-1.191 3.292-1.183 4.488.019l1.889 1.912a16.531 16.531 0 0 1 3.756-1.552v-2.681a3.18 3.18 0 0 1 3.175-3.173h2.565a3.178 3.178 0 0 1 3.175 3.173v2.681c1.342.372 2.626.905 3.84 1.6l1.9-1.9c1.196-1.196 3.281-1.196 4.483 0l1.814 1.818c.6.6.928 1.395.928 2.244 0 .846-.331 1.644-.928 2.244l-1.9 1.899a16.656 16.656 0 0 1 1.592 3.843l2.68.006a3.173 3.173 0 0 1 3.166 3.172v2.565a3.181 3.181 0 0 1-3.172 3.173l-2.69-.006a16.65 16.65 0 0 1-1.602 3.838l1.894 1.905c.6.6.928 1.398.928 2.244a3.147 3.147 0 0 1-.936 2.241l-1.817 1.812c-1.199 1.199-3.292 1.194-4.488-.008l-1.897-1.904c-1.22.69-2.509 1.22-3.846 1.586l-.005 2.682a3.177 3.177 0 0 1-3.172 3.161z" fill="#E37172"/><path d="M315.514 155.625a.715.715 0 0 1-.205-1.4 10.228 10.228 0 0 0 5.974-4.81.714.714 0 1 1 1.252.693 11.688 11.688 0 0 1-6.815 5.488.709.709 0 0 1-.206.03M302.267 141.617a.713.713 0 0 1-.671-.957 12.598 12.598 0 0 1 8.806-7.984.715.715 0 0 1 .35 1.385 11.189 11.189 0 0 0-7.811 7.084.714.714 0 0 1-.674.472" fill="#FFFFFE" opacity=".34"/><path d="M74.876 335.695h-.016a13.763 13.763 0 0 0 2.695-8.186c0-7.65-6.202-13.851-13.852-13.851-3.904 0-7.421 1.62-9.941 4.217a13.798 13.798 0 0 0-9.942-4.217c-7.647 0-13.849 6.201-13.849 13.851 0 3.727 1.483 7.104 3.875 9.597l19.5 19.83 20.72-20.257c.216-.25.425-.504.63-.766l.18-.218" fill="#E47172"/><path d="M43.82 314.42c-7.218 0-13.09 5.87-13.09 13.09 0 3.39 1.3 6.61 3.666 9.068l18.957 19.287 20.183-19.73c.165-.196.364-.437.557-.69l.154-.2a12.98 12.98 0 0 0 2.544-7.736c0-7.22-5.867-13.09-13.088-13.09a12.982 12.982 0 0 0-9.395 3.987l-.546.562-.547-.562a12.982 12.982 0 0 0-9.395-3.987zm9.512 43.588L33.308 337.64c-2.645-2.75-4.096-6.344-4.096-10.13 0-8.055 6.555-14.61 14.608-14.61 3.732 0 7.228 1.385 9.942 3.915a14.467 14.467 0 0 1 9.941-3.915c8.056 0 14.61 6.555 14.61 14.61a14.51 14.51 0 0 1-2.04 7.427h.184l-1.17 1.457c-.202.26-.422.528-.655.787l-21.3 20.828z" fill="#E37172"/><path d="M33.937 330.517a.759.759 0 0 1-.759-.76c0-6.693 5.446-12.139 12.14-12.139a.759.759 0 1 1 0 1.517c-5.859 0-10.623 4.764-10.623 10.621 0 .422-.34.761-.758.761" fill="#FFFFFE" opacity=".4"/><path d="M80.558 343.756c0 7.844-6.359 14.202-14.202 14.202-7.846 0-14.204-6.358-14.204-14.202 0-7.843 6.358-14.202 14.204-14.202 7.843 0 14.202 6.359 14.202 14.202" fill="#EEA42D"/><path d="M66.356 330.313c-7.411 0-13.443 6.03-13.443 13.443 0 7.411 6.032 13.44 13.443 13.44 7.414 0 13.44-6.029 13.44-13.44 0-7.414-6.026-13.443-13.44-13.443zm0 28.403c-8.25 0-14.96-6.71-14.96-14.96 0-8.252 6.71-14.963 14.96-14.963 8.247 0 14.96 6.711 14.96 14.963 0 8.25-6.713 14.96-14.96 14.96z" fill="#EEA42D"/><path d="M76.313 343.756c0 5.499-4.458 9.958-9.957 9.958-5.499 0-9.955-4.46-9.955-9.958 0-5.501 4.456-9.957 9.955-9.957s9.957 4.456 9.957 9.957" fill="#FBD449"/><path fill="#FFFFFE" d="M64.526 342.09v-4.435h3.602v4.435h4.43v3.3h-4.43v4.464h-3.602v-4.464h-4.37v-3.3h4.37"/><path d="M90.584 84.951a.482.482 0 0 1-.366.573l-2.164.478a.48.48 0 0 1-.573-.364l-.07-.307a.48.48 0 0 1 .367-.573l2.164-.478a.477.477 0 0 1 .573.364l.07.307M94.788 84.31a.492.492 0 0 1-.398.554l-2.188.368a.477.477 0 0 1-.552-.392l-.053-.31a.473.473 0 0 1 .396-.55l2.185-.374c.263-.045.51.13.555.393l.055.31M98.542 83.588a.48.48 0 0 1-.396.554l-2.188.369a.478.478 0 0 1-.552-.39l-.055-.31a.485.485 0 0 1 .395-.555l2.186-.368a.48.48 0 0 1 .557.39l.053.31" fill="#4E5F8E"/><path d="M133.704 86.346a.657.657 0 0 1-.839.406l-6.679-2.31a.656.656 0 0 1-.405-.836l.63-1.827a.665.665 0 0 1 .839-.409l6.674 2.31c.347.12.53.494.414.839l-.634 1.827" fill="#4D5F8E"/><path d="M133.425 85.808l-7.88-2.586c-1.075-.006-1.595-.372-2.16-1.39l-.827-1.92c-.77-2.078-2.144-3.82-4.793-3.82h-6.398c-2.65 0-3.393 1.655-4.796 3.82l-1.165 2.092h-.01c-.557 1.014-1.955 1.279-3.03 1.273L88.33 85.808c-2.443.716-4.543 2.034-4.543 4.541v25.446a4.546 4.546 0 0 0 4.543 4.544h45.096a4.546 4.546 0 0 0 4.547-4.544V90.349c0-2.507-1.85-3.637-4.547-4.541" fill="#6B80B2"/><path d="M96.945 84.256l-8.616 1.552c-2.443.716-4.543 2.034-4.543 4.541v25.446a4.546 4.546 0 0 0 4.543 4.544h8.616V84.256" fill="#8598C1"/><path d="M129.661 101.174c0 8.801-7.135 15.937-15.936 15.937s-15.937-7.136-15.937-15.937c0-8.801 7.136-15.936 15.937-15.936 8.8 0 15.936 7.135 15.936 15.936" fill="#FFF"/><path d="M113.725 85.975c-8.38 0-15.197 6.82-15.197 15.2 0 8.378 6.817 15.195 15.197 15.195 8.38 0 15.196-6.817 15.196-15.196 0-8.38-6.817-15.199-15.196-15.199zm0 31.876c-9.194 0-16.674-7.48-16.674-16.677 0-9.194 7.48-16.676 16.674-16.676 9.196 0 16.674 7.482 16.674 16.676 0 9.196-7.478 16.677-16.674 16.677z" fill="#FFFFFE"/><path d="M126.852 101.174c0 7.252-5.875 13.127-13.127 13.127-7.25 0-13.128-5.875-13.128-13.127 0-7.25 5.878-13.127 13.128-13.127 7.252 0 13.127 5.878 13.127 13.127" fill="#CDCFCA"/><path d="M123.412 101.174c0 5.348-4.337 9.684-9.687 9.684-5.348 0-9.685-4.336-9.685-9.684 0-5.35 4.337-9.684 9.685-9.684 5.35 0 9.687 4.334 9.687 9.684" fill="#F4F4F2"/><path d="M113.725 92.23c-4.931 0-8.945 4.013-8.945 8.944 0 4.931 4.014 8.947 8.945 8.947 4.933 0 8.944-4.016 8.944-8.947 0-4.931-4.01-8.944-8.944-8.944zm0 19.369c-5.748 0-10.422-4.677-10.422-10.425 0-5.748 4.674-10.424 10.422-10.424s10.424 4.676 10.424 10.424c0 5.748-4.676 10.425-10.424 10.425z" fill="#CDCECA"/><path d="M101.76 97.896a.728.728 0 0 1-.232-.04.736.736 0 0 1-.466-.934 13.232 13.232 0 0 1 9.09-8.618.738.738 0 0 1 .387 1.424 11.77 11.77 0 0 0-8.074 7.658.747.747 0 0 1-.706.51" fill="#FFFFFE" opacity=".4"/><path d="M116.592 101.174a2.867 2.867 0 1 1-5.735 0 2.867 2.867 0 0 1 5.735 0" fill="#797C7A"/><path d="M115.41 100.42a.753.753 0 1 1-1.506.002.753.753 0 0 1 1.505-.001" fill="#FFF"/><path d="M86.743 110.617a.738.738 0 0 1-.74-.737V93.307c0-2.499 1.708-4.266 5.077-5.252a.74.74 0 0 1 .414 1.42c-2.698.79-4.01 2.044-4.01 3.832v16.573a.736.736 0 0 1-.74.737" fill="#FFFFFE" opacity=".3"/></g></svg>