<?xml version="1.0" encoding="UTF-8" standalone="no"?>
<svg width="101px" height="56px" viewBox="0 0 101 56" version="1.1" xmlns="http://www.w3.org/2000/svg" xmlns:xlink="http://www.w3.org/1999/xlink">
    <!-- Generator: Sketch 41.2 (35397) - http://www.bohemiancoding.com/sketch -->
    <title>img_placeholder</title>
    <desc>Created with Sketch.</desc>
    <defs></defs>
    <g id="Page-1" stroke="none" stroke-width="1" fill="none" fill-rule="evenodd">
        <g id="Dashboard" transform="translate(-460.000000, -515.000000)">
            <g id="board" transform="translate(96.000000, 137.000000)">
                <g id="posts" transform="translate(335.000000, 92.000000)">
                    <g id="4" transform="translate(0.000000, 270.000000)">
                        <g id="1" transform="translate(29.740234, 16.000000)">
                            <g id="img_placeholder">
                                <rect id="Rectangle-2" fill="#1ECDE2" x="0" y="0" width="100" height="56"></rect>
                                <g id="all" transform="translate(20.485742, 12.200000)" fill="#FFFFFF">
                                    <g id="山3" transform="translate(36.383231, 18.034557)">
                                        <path d="M8.6781162,4.58677741 C8.6781162,4.58677741 10.1529274,6.11170052 10.1529274,7.22201992 C9.31922468,8.17725144 8.42977083,9.19097939 7.40595588,9.83046944 C7.08584669,9.84647376 6.47148965,9.85726243 6.28338817,9.85726243 C4.87022027,8.97063019 3.58718875,7.772414 3.58718875,7.772414 L5.17231185,5.28163358 L6.75052665,6.11170052 L8.6781162,4.58677741 Z" id="Path-11" opacity="0.200000003"></path>
                                        <path d="M13.4293124,10.0536427 C13.4514992,9.69809553 13.7565433,9.40986757 14.1179177,9.40986757 L14.0068902,9.40986757 C14.3650097,9.40986757 14.6333465,9.69871216 14.6063248,10.0538713 L14.4835418,11.6676651 C14.4564809,12.0233385 14.1453414,12.3114089 13.7811606,12.3110816 L13.9418548,12.311226 C13.5810013,12.3109017 13.3064898,12.0218967 13.3286445,11.6668636 L13.4293124,10.0536427 Z" id="Rectangle-5" transform="translate(14.617176, 10.860535) rotate(-35.000000) translate(-14.617176, -10.860535) "></path>
                                        <path d="M6.65072774,5.25809665 C6.65072774,5.0033827 6.85152351,4.79689624 7.10228767,4.79689624 L9.2594822,4.79689624 C9.50887186,4.79689624 9.71104213,5.01083198 9.71104213,5.25809665 L9.71104213,5.25809665 C9.71104213,5.5128106 9.51024635,5.71929705 9.2594822,5.71929705 L7.10228767,5.71929705 C6.852898,5.71929705 6.65072774,5.50536132 6.65072774,5.25809665 L6.65072774,5.25809665 Z" id="Rectangle-9" transform="translate(8.180885, 6.086879) rotate(-44.000000) translate(-8.180885, -6.086879) "></path>
                                        <path d="M4.16223257,5.4286729 C4.16223257,5.17395895 4.36127524,4.9674725 4.62748392,4.9674725 L6.23358021,4.9674725 C6.49053143,4.9674725 6.69883156,5.18140823 6.69883156,5.4286729 L6.69883156,5.4286729 C6.69883156,5.68338685 6.49978889,5.88987331 6.23358021,5.88987331 L4.62748392,5.88987331 C4.37053269,5.88987331 4.16223257,5.67593757 4.16223257,5.4286729 L4.16223257,5.4286729 Z" id="Rectangle-9" transform="translate(5.452216, 6.257455) scale(-1, 1) rotate(-44.000000) translate(-5.452216, -6.257455) "></path>
                                        <path d="M1.23422517,0.322429312 C1.06611193,0.0454887028 0.727753916,-0.0131766548 0.473783811,0.195251785 L0.514610999,0.161745687 C0.262744073,0.368448088 0.194712891,0.758889312 0.360905162,1.03094934 L7.23252746,12.2799306 C7.399505,12.5532762 7.76755534,12.6350533 8.03909187,12.4718977 L7.95275624,12.5237733 C8.23123193,12.3564483 8.31990776,11.9949974 8.15258512,11.7193592 L1.23422517,0.322429312 Z" id="Combined-Shape" transform="translate(4.251853, 6.313539) scale(-1, 1) translate(-4.251853, -6.313539) "></path>
                                        <path d="M8.11119605,0.347711773 C7.91858969,0.0563239185 7.54259478,0.00053952751 7.26573832,0.227750367 L7.38790082,0.127493925 C7.11357376,0.352628924 7.04649509,0.765578067 7.24539516,1.06070103 L9.42564842,4.29570652 C9.62127177,4.58596757 10.0318275,4.66987077 10.3269108,4.49256687 L10.1549149,4.59591242 C10.457045,4.41437433 10.5439286,4.02811316 10.3532252,3.73960426 L8.11119605,0.347711773 Z" id="Combined-Shape-Copy"></path>
                                    </g>
                                    <g id="山2" transform="translate(23.238682, 1.727743)">
                                        <g id="Group-7" transform="translate(2.587972, 7.170859)">
                                            <path d="M1.20430464,4.29486487 C1.20430464,4.29486487 -0.421463446,6.29221571 0.183247955,6.81096321 C0.764313356,7.30942616 1.68411591,7.82724491 3.30059394,6.41790032 C3.40537938,6.20788646 3.90158675,6.73268826 3.59059893,6.41790032 C3.38864998,6.21348366 5.53263618,8.88093337 5.9108432,9.22819397 C6.28905021,9.57545458 6.6428701,9.73534437 7.24546292,9.10197413 C7.53638417,8.79619409 7.68453339,8.38303565 8.2406257,7.9722817 C9.26080382,7.21873379 11.0335941,6.34790934 11.401277,5.51318315 C11.2710074,4.63534322 10.379032,3.33426695 10.0769141,2.88101378 C9.0213225,2.77044077 7.81642267,5.1021813 6.82677311,6.08097658 C5.79348893,5.20150984 4.92264896,3.26759565 3.79131106,2.71624098 C2.87331772,2.26885924 1.20430464,4.29486487 1.20430464,4.29486487 Z" id="Path-10" opacity="0.200000003"></path>
                                            <path d="M6.5104824,4.02948515 C6.5104824,3.7747712 6.72006906,3.56828475 6.97817229,3.56828475 L10.9204457,3.56828475 C11.1787437,3.56828475 11.3881355,3.78222048 11.3881355,4.02948515 L11.3881355,4.02948515 C11.3881355,4.2841991 11.1785489,4.49068556 10.9204457,4.49068556 L6.97817229,4.49068556 C6.7198743,4.49068556 6.5104824,4.27674982 6.5104824,4.02948515 L6.5104824,4.02948515 Z" id="Rectangle-9" transform="translate(8.949309, 4.858268) rotate(-50.000000) translate(-8.949309, -4.858268) "></path>
                                            <rect id="Rectangle-10" transform="translate(10.892837, 2.571691) rotate(-48.000000) translate(-10.892837, -2.571691) " x="9.60285393" y="1.28170823" width="0.939008639" height="1.28998295" rx="0.469504319"></rect>
                                            <rect id="Rectangle-9" transform="translate(3.054641, 3.812508) rotate(-36.000000) translate(-3.054641, -3.812508) " x="1.06607759" y="2.52252479" width="3.97712616" height="0.922400807" rx="0.461200404"></rect>
                                            <path d="M1.97926195,3.76759275 C1.96195388,3.47519701 2.19013825,3.23719941 2.47823927,3.23605275 L7.05461801,3.21783855 C7.34750364,3.21667285 7.58493436,3.46228587 7.58493436,3.74725501 L7.58493436,3.74725501 C7.58493436,4.04080935 7.34535055,4.27852405 7.05030623,4.2782062 L2.54379386,4.27335128 C2.24852689,4.27303319 1.99496146,4.03281407 1.97782669,3.74334601 L1.97926195,3.76759275 Z" id="Rectangle-9-Copy" transform="translate(4.781298, 4.507777) scale(-1, 1) rotate(-50.000000) translate(-4.781298, -4.507777) "></path>
                                        </g>
                                        <path d="M6.84691343,0.748254072 C6.87645549,0.52733224 6.7995239,0.288802301 6.64163131,0.139917061 C6.42152894,-0.0676290621 6.15100532,-0.0161690807 6.01728069,0.235884681 L0.324944651,10.9652068 C0.190021162,11.2195203 0.285696636,11.5294647 0.535964093,11.6625343 C0.778912311,11.7917122 1.09837526,11.6970186 1.23315658,11.442338 L6.2694613,1.92581779 L14.0366882,16.551298 C14.1743204,16.8104558 14.4960945,16.9087789 14.7602772,16.7683104 L14.7178082,16.7908916 C14.9798032,16.6515864 15.0821349,16.3304142 14.9410705,16.063501 L6.84691343,0.748254072 Z" id="Combined-Shape" transform="translate(7.631260, 8.425143) scale(-1, 1) translate(-7.631260, -8.425143) "></path>
                                    </g>
                                    <g id="山1" transform="translate(4.105787, 6.424488)">
                                        <g id="Group-6" transform="translate(6.728928, 6.251159)">
                                            <path d="M1.56687862,3.38656035 C1.83907706,3.72762011 2.9779526,4.09550789 3.20127475,5.20079616 C3.65094315,5.22494827 6.14250163,2.11543391 6.10336872,2.62424207 C6.07297343,3.01944327 8.70051874,3.67223845 9.27245384,3.89102035 C9.51621937,4.43964131 10.2816209,5.70814858 10.461687,6.23858906 C9.67222821,7.47553983 8.2737787,8.36597138 6.1970477,6.47245801 C5.26782505,7.43921752 3.46801663,11.6633746 0.000105048087,5.50755738 C0.257841033,5.07379537 1.39471626,3.17084402 1.56687862,3.38656035 Z" id="Path-9" opacity="0.200000003"></path>
                                            <rect id="Rectangle" transform="translate(2.491844, 4.211914) scale(-1, 1) translate(-2.491844, -4.211914) " x="2.03564567" y="2.38106731" width="0.912397058" height="3.66169277" rx="0.456198529"></rect>
                                            <rect id="Rectangle-6" transform="translate(5.305300, 4.224554) rotate(41.000000) translate(-5.305300, -4.224554) " x="4.01531706" y="1.72210884" width="1.07315273" height="5.00489065" rx="0.536576365"></rect>
                                            <rect id="Rectangle-7" transform="translate(7.715640, 2.552855) rotate(-49.000000) translate(-7.715640, -2.552855) " x="6.42565721" y="0.500461959" width="1.07315273" height="4.1047869" rx="0.536576365"></rect>
                                            <rect id="Rectangle-8" transform="translate(8.872516, 4.906140) rotate(48.000000) translate(-8.872516, -4.906140) " x="7.5825326" y="3.61615716" width="1.07315273" height="1.62949928" rx="0.536576365"></rect>
                                        </g>
                                        <rect id="Rectangle-3" transform="translate(2.446932, 22.192205) rotate(28.000000) translate(-2.446932, -22.192205) " x="1.15694948" y="19.4569742" width="1.07315273" height="5.47046187" rx="0.536576365"></rect>
                                        <path d="M13.0823993,0.774294496 C13.1119413,0.553372664 13.0350097,0.314842725 12.8771171,0.165957486 C12.6570148,-0.0415886377 12.3864911,0.0098713437 12.2527665,0.261925106 L6.56043047,10.9912472 C6.42550698,11.2455607 6.52118246,11.5555052 6.77144991,11.6885747 C7.01439813,11.8177526 7.33386108,11.7230591 7.4686424,11.4683784 L12.5049471,1.95185821 L20.272174,16.5773384 C20.4098062,16.8364962 20.7315803,16.9348193 20.995763,16.7943509 L20.9532941,16.816932 C21.215289,16.6776268 21.3176207,16.3564546 21.1765563,16.0895415 L13.0823993,0.774294496 Z" id="Combined-Shape"></path>
                                    </g>
                                    <g id="线条" transform="translate(0.342149, 4.655712)">
                                        <g id="Group" transform="translate(47.672746, 10.591745)">
                                            <rect id="Rectangle-Copy" x="4.67603492" y="0" width="1.36859559" height="1.19593608" rx="0.59796804"></rect>
                                            <rect id="Rectangle-2-Copy" x="0" y="0" width="4.10578676" height="1.19593608" rx="0.59796804"></rect>
                                        </g>
                                        <g id="Group-2" transform="translate(43.224811, 8.147496)">
                                            <rect id="Rectangle-Copy" x="6.04463051" y="0" width="1.36859559" height="1.19593608" rx="0.59796804"></rect>
                                            <rect id="Rectangle-2-Copy" x="0" y="0" width="5.47438235" height="1.19593608" rx="0.59796804"></rect>
                                        </g>
                                        <g id="Group-3" transform="translate(37.864478, 0.000000)">
                                            <rect id="Rectangle-Copy" x="3.99173713" y="0" width="1.36859559" height="1.19593608" rx="0.59796804"></rect>
                                            <rect id="Rectangle-2-Copy" x="0" y="0" width="3.42148897" height="1.19593608" rx="0.59796804"></rect>
                                        </g>
                                        <g id="Group-4" transform="translate(0.000000, 7.798318)">
                                            <rect id="Rectangle" x="4.56198529" y="0" width="1.36859559" height="1.19593608" rx="0.59796804"></rect>
                                            <rect id="Rectangle-2" x="0" y="0" width="4.10578676" height="1.19593608" rx="0.59796804"></rect>
                                        </g>
                                        <g id="Group-5" transform="translate(5.246283, 5.354069)">
                                            <rect id="Rectangle-Copy" x="3.64958823" y="-8.55193911e-14" width="1.36859559" height="1.19593608" rx="0.59796804"></rect>
                                            <rect id="Rectangle-2-Copy" x="1.21318206e-13" y="-8.55193911e-14" width="3.07934007" height="1.19593608" rx="0.59796804"></rect>
                                        </g>
                                    </g>
                                    <g id="太阳" transform="translate(20.757033, 0.000000)">
                                        <path d="M1.12521996,1.90089686 C0.210864239,2.46807315 1.0899861,7.92720812 4.77744516,4.65897638 C5.00683387,3.22171862 4.0361224,1.13154195 1.12521996,1.90089686 Z" id="Path-3" opacity="0.200000003"></path>
                                        <path d="M3.07934007,5.35406907 C4.27610965,5.35406907 5.24628308,4.36396322 5.24628308,3.14260576 C5.24628308,1.9212483 4.27610965,0.931142447 3.07934007,0.931142447 C1.88257049,0.931142447 0.912397058,1.9212483 0.912397058,3.14260576 C0.912397058,4.36396322 1.88257049,5.35406907 3.07934007,5.35406907 Z M3.07934007,6.28521151 C4.78001263,6.28521151 6.15868014,4.87821899 6.15868014,3.14260576 C6.15868014,1.40699252 4.78001263,0 3.07934007,0 C1.37866751,0 0,1.40699252 0,3.14260576 C0,4.87821899 1.37866751,6.28521151 3.07934007,6.28521151 Z" id="Combined-Shape"></path>
                                    </g>
                                    <g id="云朵4" transform="translate(49.973114, 25.272008) scale(-1, 1) translate(-49.973114, -25.272008) translate(46.228852, 22.463812)">
                                        <path d="M5.03886535,3.20986153 C6.73770333,2.66451633 7.0710772,4.30653382 7.0710772,4.30653382 L1.14049632,4.30653382 C1.14049632,4.30653382 1.59916521,2.19507227 2.71776934,1.81301428 C4.52656987,1.47735209 5.03886535,2.95312897 5.03886535,3.20986153 Z" id="Path-8" opacity="0.200000003" transform="translate(4.105787, 3.053605) scale(-1, 1) translate(-4.105787, -3.053605) "></path>
                                        <path d="M2.21252397,2.23140428 C2.43639044,2.1681814 2.43678302,2.16572195 2.62134395,2.11923347 C2.39641705,0.600192005 5.53031304,-0.333822896 5.59259089,2.56555553 C5.71379748,2.60587932 5.79713631,2.63586046 5.90157187,2.67035861 C6.68236113,3.002261 6.8137845,3.28905007 6.8113915,3.60667118 C6.80801664,4.05461156 6.40565448,4.34219949 6.20440031,4.34219949 L1.43267575,4.34219949 C0.317847861,4.14001233 0.133430497,1.80213423 2.21252397,2.23140428 Z M1.99899315,1.52116636 C2.47016006,-0.249062941 5.69966485,-0.892216274 6.26800591,2.03489553 C6.73752793,1.93508487 8.62976015,3.75206537 6.26800591,5.00489065 L1.27887198,5.00489065 C-1.4695749,3.4006266 0.903144509,0.850713967 1.99899315,1.52116636 Z" id="Combined-Shape"></path>
                                    </g>
                                    <g id="云朵3" transform="translate(32.504145, 14.083530)">
                                        <path d="M2.28780772,3.70159819 C2.06852488,1.9433547 6.44291723,0.21231832 6.90163391,4.32059187 C6.90163391,4.32059187 8.39931571,4.32059187 8.39931571,5.743281 C7.3086302,5.743281 2.67843658,5.743281 1.63108564,5.743281 C1.51054927,5.63274661 -0.856022251,2.89216242 2.28780772,3.70159819 Z" id="Path-7" opacity="0.200000003"></path>
                                        <path d="M2.74545987,1.9786777 C3.3540593,-0.306639633 7.52556352,-1.13693289 8.25968139,2.64188792 C8.86615612,2.5130351 11.469907,4.85870694 8.4192635,6.47606991 L1.59922913,6.47606991 C-1.95089961,4.40500915 1.32996818,1.1131421 2.74545987,1.9786777 Z M3.02127452,2.89509976 C3.02127452,2.89509976 3.35730762,2.85093067 3.57576579,2.80123081 C3.28523101,0.840516179 7.30681426,-0.415987263 7.38725766,3.3264081 C7.53530663,3.43845474 7.60958112,3.47105033 7.72228582,3.54168347 C9.84596428,3.84793085 8.62180781,5.61962517 8.17752295,5.61962517 L2.01395596,5.61962517 C0.573949039,5.35865051 0.335739819,2.34101609 3.02127452,2.89509976 Z" id="Combined-Shape"></path>
                                    </g>
                                    <g id="云朵2" transform="translate(22.125629, 22.812990)">
                                        <path d="M3.4333379,2.98183625 C3.4333379,2.98183625 2.34702103,2.30720923 1.64845223,2.86112549 C0.883685762,3.46753189 0.529617224,5.31919795 1.26194388,5.62166608 C2.66676167,5.62166608 9.32419028,5.62166608 9.97955083,5.62166608 C10.1956409,3.33307224 7.66246791,3.93165293 7.42940271,4.35954947 C8.13548473,3.32224883 5.62989158,-0.0679502668 3.4333379,2.98183625 Z" id="Path-5" opacity="0.200000003"></path>
                                        <path d="M2.06259536,3.740346 C1.29652876,3.60075646 0.260939966,4.83049865 1.61384022,5.65506184 C1.61384022,5.65506184 7.56571609,5.65506184 9.82665033,5.65506184 C11.6254589,4.28590971 9.878177,2.18450171 8.62690692,3.54871816 C8.34734201,3.54871816 8.14284965,3.54871816 7.95305984,3.54871816 C8.29372112,0.14235791 4.99073741,0.615708267 4.65207889,2.25396361 C4.54407807,2.25396361 4.30072014,2.25396361 4.16917413,2.25396361 C3.10936488,1.47645455 1.98274169,2.62610564 2.29908264,3.54871816 C2.19666884,3.63939448 2.17888637,3.65391763 2.06259536,3.740346 Z M1.25108269,6.56207186 C1.25108269,6.56207186 7.17698751,6.56207186 10.0924333,6.56207186 C13.2300597,4.5839445 10.7375006,1.56008854 8.83917356,2.23510265 C8.34759963,-0.798970991 4.70175965,-0.194401274 4.15927975,1.17131323 C3.0530974,0.59869173 1.25108269,1.70882046 1.45773834,2.91400235 C0.55997431,2.72936465 -1.09707826,5.21161192 1.25108269,6.56207186 Z" id="Combined-Shape"></path>
                                    </g>
                                    <g id="云朵1" transform="translate(0.000000, 17.458921)">
                                        <path d="M2.88686437,5.0206118 C2.79317124,2.646815 5.77549181,-0.00914349848 8.03152405,3.3879765 C8.34092174,3.07381699 11.1072619,2.2702986 11.1991291,5.30237923 C11.4192927,5.30237923 12.6528662,5.4248674 12.8705081,6.99199538 L2.17351665,6.99199538 C1.18414443,6.99199538 0.765836095,5.70996316 0.765836095,4.88951225 C0.765836095,4.71501365 1.96945812,4.06193458 2.88686437,5.0206118 Z" id="Path-2" opacity="0.200000003"></path>
                                        <path d="M3.69611249,4.31541259 C4.06961268,4.31541259 4.03799965,4.31541259 4.29591302,4.31541259 C4.03799965,0.856253052 7.11773343,-0.173678574 8.83025139,2.64860114 C10.5435159,1.76111255 11.7579283,2.5901988 11.6939157,4.45090998 C14.2681194,4.45090998 13.2787084,6.93685316 12.4409948,6.93685316 L2.11406457,6.93685316 C-0.464020696,5.72653212 1.68158825,2.40670786 3.69611249,4.31541259 Z M2.91470027,2.77554702 C3.31891287,2.80446644 3.48829897,2.8724483 3.48829897,2.8724483 C3.19867432,1.00777609 6.7631448,-1.64052946 9.15982939,1.49097777 C11.535217,0.71993959 12.6288396,2.8724483 12.5417438,3.6555358 C15.5466085,4.57775891 13.9368539,7.9147108 12.5417438,7.9147108 C11.9712598,7.9147108 2.10846983,7.9147108 1.71979737,7.9147108 C-1.04725982,6.79084577 -0.301876705,2.54541684 2.91470027,2.77554702 Z" id="Combined-Shape"></path>
                                    </g>
                                </g>
                            </g>
                        </g>
                    </g>
                </g>
            </g>
        </g>
    </g>
</svg>