<?xml version="1.0" encoding="UTF-8" standalone="no"?>
<svg width="129px" height="27px" viewBox="0 0 129 27" version="1.1" xmlns="http://www.w3.org/2000/svg" xmlns:xlink="http://www.w3.org/1999/xlink">
    <!-- Generator: Sketch 41.2 (35397) - http://www.bohemiancoding.com/sketch -->
    <title>logo</title>
    <desc>Created with Sketch.</desc>
    <defs></defs>
    <g id="Page-1" stroke="none" stroke-width="1" fill="none" fill-rule="evenodd">
        <g id="Home" transform="translate(-40.000000, -26.000000)">
            <g id="All">
                <g id="header">
                    <g id="logo" transform="translate(40.000000, 26.000000)">
                        <path d="M70.0518446,21.2013127 C70.0000054,20.592202 69.7148941,20.0738178 69.196502,19.6461443 L64.6087554,14.9028809 L68.3411594,11.1704768 C69.1187475,10.2892103 69.4556973,9.77082605 69.3520189,9.61530843 C69.3001797,9.01915758 69.0863462,8.62064968 68.7105119,8.41977276 C68.3346777,8.21889584 68.0301269,8.12493869 67.7968505,8.13789849 C67.4728555,8.1638181 67.2104234,8.25777524 67.0095465,8.41977276 C66.8086696,8.58177027 66.7082327,8.66924762 66.7082327,8.68220742 L61.8094523,13.8920214 L61.8094523,9.61530843 C61.7576131,8.91547917 61.5372998,8.48781215 61.1485058,8.33229454 C60.7597117,8.17677692 60.48756,8.11197889 60.3320424,8.13789849 C59.6192533,8.2026975 59.1851065,8.45216993 59.0295889,8.88632327 C58.8740713,9.3204766 58.815753,9.56346923 58.8546325,9.61530843 L58.8546325,21.1235543 C58.8935119,21.7585845 59.0976257,22.1408929 59.46698,22.2704909 C59.8363343,22.400089 60.1246856,22.4519274 60.3320424,22.4260078 C61.0318717,22.3741686 61.4595387,22.1765346 61.6150563,21.8330998 C61.7705739,21.4896651 61.8353719,21.2531523 61.8094523,21.1235543 L61.8094523,16.0692571 L66.9415079,21.6678632 C67.2784627,22.0566572 67.6121726,22.2834504 67.9426475,22.3482494 C68.2731225,22.4130484 68.5096353,22.4389676 68.6521931,22.4260078 C69.248344,22.3741686 69.6338923,22.1894942 69.8088496,21.8719791 C69.9838069,21.5544639 70.0648044,21.3309107 70.0518446,21.2013127 Z M71.4514962,20.890279 C71.5033354,21.6289877 71.7301285,22.0760941 72.1318823,22.2316117 C72.5336361,22.3871294 72.7993081,22.4519274 72.9289061,22.4260078 L79.61613,22.4260078 C80.2770799,22.4000882 80.6820676,22.2445729 80.8311053,21.9594573 C80.980143,21.6743417 81.0417012,21.3697909 81.0157816,21.0457959 C80.9639424,20.4237254 80.743629,20.041417 80.354835,19.8988592 C79.966041,19.7563014 79.6938892,19.6979832 79.5383716,19.7239028 L74.406316,19.7239028 L74.406316,16.6913245 L79.3050964,16.6913245 C79.9660462,16.6783647 80.3710339,16.5163696 80.5200716,16.2053344 C80.6691094,15.8942991 80.7306675,15.5897484 80.7047479,15.2916729 C80.6658685,14.6307231 80.484434,14.2257354 80.160439,14.0766977 C79.8364439,13.9276599 79.5254134,13.8661018 79.2273379,13.8920214 L74.406316,13.8920214 L74.406316,11.01496 L79.4606132,11.01496 C80.4066787,11.0408796 80.8732245,10.5743337 80.8602647,9.61530843 C80.8213853,8.99323798 80.6464306,8.61092958 80.3353954,8.46837177 C80.0243602,8.32581396 79.732769,8.26749573 79.4606132,8.29341533 L72.9289061,8.29341533 C72.216117,8.37117414 71.7819702,8.65952539 71.6264526,9.15847773 C71.470935,9.65743007 71.4126168,9.93930152 71.4514962,10.0041005 L71.4514962,20.890279 Z M81.9877618,9.61530843 C82.0266412,9.92634366 82.0914392,10.211455 82.1821578,10.470651 L85.9145619,15.7582234 L85.9145619,21.1235543 C85.9534413,21.7585845 86.1834743,22.1408929 86.6046678,22.2704909 C87.0258614,22.400089 87.3401318,22.4519274 87.5474887,22.4260078 C88.2084385,22.3741686 88.6134262,22.1765346 88.7624639,21.8330998 C88.9115017,21.4896651 88.9730598,21.2531523 88.9471402,21.1235543 L88.9471402,15.7582234 L92.6795442,10.470651 C92.8998609,10.0688972 93.0035377,9.78378585 92.9905779,9.61530843 C92.9387387,8.98027818 92.7119456,8.57205057 92.3101918,8.39061335 C91.9084379,8.20917614 91.5909276,8.12493869 91.3576511,8.13789849 C90.6967013,8.2545367 90.3338323,8.46189041 90.2690333,8.75996584 L87.4697302,12.881162 L84.5926688,8.75996584 C84.0742767,8.24157379 83.6595693,8.03422008 83.3485341,8.13789849 C82.7135038,8.2026975 82.3214757,8.45216993 82.172438,8.88632327 C82.0234003,9.3204766 81.9618422,9.56346923 81.9877618,9.61530843 Z M95.245572,21.0457959 C95.2844514,21.7197055 95.4982849,22.1246932 95.887079,22.2607711 C96.275873,22.3968491 96.5545046,22.4519274 96.722982,22.4260078 C97.4228112,22.3612088 97.8504783,22.1311758 98.0059959,21.7359018 C98.1615135,21.3406279 98.2263115,21.1105949 98.2003919,21.0457959 L98.2003919,9.77082527 C98.1485527,9.03211661 97.9282394,8.58177027 97.5394454,8.41977276 C97.1506513,8.25777524 96.8784996,8.18973731 96.722982,8.21565691 C96.0101929,8.28045592 95.5760461,8.53964805 95.4205285,8.99324109 C95.2650109,9.44683413 95.2066926,9.70602626 95.245572,9.77082527 L95.245572,21.0457959 Z M100.805299,20.7736414 C100.76642,20.993958 100.75346,21.1105945 100.76642,21.1235543 C100.805299,21.7585845 101.019133,22.1408929 101.407927,22.2704909 C101.796721,22.400089 102.075352,22.4519274 102.24383,22.4260078 C102.87886,22.3741686 103.300047,22.1797745 103.507404,21.8428197 C103.714761,21.5058648 103.811958,21.2920313 103.798998,21.2013127 L104.965374,13.0366788 L107.375885,21.434588 C107.557322,21.9141006 107.835954,22.2024518 108.211788,22.2996504 C108.587622,22.3968489 108.853294,22.4389676 109.008812,22.4260078 C109.579043,22.3741686 109.980791,22.2089336 110.214067,21.9302979 C110.447344,21.6516621 110.56398,21.4864272 110.56398,21.434588 L112.974491,13.0366788 L114.140868,21.2013127 C114.283425,21.7974636 114.555577,22.1538527 114.957331,22.2704909 C115.359085,22.3871292 115.605317,22.4389676 115.696036,22.4260078 C116.331066,22.3741686 116.736054,22.1538553 116.911011,21.7650612 C117.085969,21.3762672 117.147527,21.0587568 117.095687,20.8125206 L115.307244,9.69306685 C115.125807,8.99323759 114.775897,8.55261096 114.257505,8.37117375 C113.739113,8.18973653 113.415123,8.11197889 113.285525,8.13789849 C112.546816,8.2026975 112.034912,8.45216993 111.749796,8.88632327 C111.464681,9.3204766 111.328605,9.56346923 111.341565,9.61530843 L109.008812,17.4689086 L108.931054,17.4689086 L106.598301,9.61530843 C106.352065,8.92843897 106.018355,8.50401185 105.597161,8.34201434 C105.175968,8.18001683 104.835778,8.11197889 104.576582,8.13789849 C103.954512,8.1767779 103.481486,8.3744119 103.157491,8.73080643 C102.833496,9.08720096 102.658541,9.40795123 102.632622,9.69306685 L100.805299,20.7736414 Z M119.272923,20.890279 C119.324762,21.6289877 119.551555,22.0760941 119.953309,22.2316117 C120.355063,22.3871294 120.620735,22.4519274 120.750333,22.4260078 L127.437557,22.4260078 C128.098507,22.4000882 128.503495,22.2445729 128.652532,21.9594573 C128.80157,21.6743417 128.863128,21.3697909 128.837209,21.0457959 C128.785369,20.4237254 128.565056,20.041417 128.176262,19.8988592 C127.787468,19.7563014 127.515316,19.6979832 127.359799,19.7239028 L122.227743,19.7239028 L122.227743,16.6913245 L127.126523,16.6913245 C127.787473,16.6783647 128.192461,16.5163696 128.341499,16.2053344 C128.490536,15.8942991 128.552095,15.5897484 128.526175,15.2916729 C128.487295,14.6307231 128.305861,14.2257354 127.981866,14.0766977 C127.657871,13.9276599 127.34684,13.8661018 127.048765,13.8920214 L122.227743,13.8920214 L122.227743,11.01496 L127.28204,11.01496 C128.228106,11.0408796 128.694652,10.5743337 128.681692,9.61530843 C128.642812,8.99323798 128.467858,8.61092958 128.156822,8.46837177 C127.845787,8.32581396 127.554196,8.26749573 127.28204,8.29341533 L120.750333,8.29341533 C120.037544,8.37117414 119.603397,8.65952539 119.44788,9.15847773 C119.292362,9.65743007 119.234044,9.93930152 119.272923,10.0041005 L119.272923,20.890279 Z" id="KEYIME" fill="#4A4A4A"></path>
                        <path d="M44.5679381,11.0839625 C42.6657632,11.0839625 40.9215306,11.7664424 39.5687203,12.9000351 C39.256005,5.9880777 33.5669121,0.477 26.579417,0.477 C21.2331487,0.477 16.6448979,3.70346052 14.6428865,8.31125605 C13.2900762,7.59972326 11.7502706,7.19245393 10.1169674,7.19245393 C4.73583558,7.19245393 0.3705,11.5562048 0.3705,16.9399778 C0.3705,22.3237508 4.73583558,26.6853888 10.1169674,26.6853888 L44.5684663,26.6853888 C48.8788654,26.6853888 52.3705,23.1942824 52.3705,18.8859963 C52.3699718,14.5766536 48.8783372,11.0839625 44.5679381,11.0839625 Z M4.05810984,16.9901602 C4.05810984,17.5902353 3.56949229,18.0772682 2.96941712,18.0772682 C2.36828548,18.0772682 1.88178087,17.5902353 1.88178087,16.9901602 C1.88178087,12.441527 5.56939071,8.75497361 10.115911,8.75497361 C10.4867321,8.75497361 10.8469885,8.78772419 11.2046037,8.83526536 C7.17152803,9.36772642 4.05810984,12.8112916 4.05810984,16.9901602 Z M18.7662904,13.429855 C18.7662904,14.2031913 18.1382187,14.8307347 17.3648824,14.8307347 C16.5915461,14.8307347 15.9634745,14.2031913 15.9634745,13.429855 C15.9634745,7.5659162 20.7165347,2.81338423 26.579417,2.81338423 C27.0553569,2.81338423 27.5212604,2.85511481 27.980825,2.91639009 C22.7819343,3.60309583 18.7662904,8.04185611 18.7662904,13.429855 Z M39.8270273,18.9108233 C39.8270273,19.3809526 39.4466979,19.7602255 38.9776251,19.7602255 C38.5064393,19.7602255 38.12611,19.3804244 38.12611,18.9108233 C38.12611,15.3531593 41.0108023,12.468467 44.5684663,12.468467 C44.8589956,12.468467 45.1416015,12.493294 45.4199814,12.5307987 C42.2643044,12.9475763 39.8270273,15.6426322 39.8270273,18.9108233 Z" id="Shape" fill="#00CF6B"></path>
                    </g>
                </g>
            </g>
        </g>
    </g>
</svg>