<?xml version="1.0" encoding="UTF-8" standalone="no"?>
<svg width="50px" height="50px" viewBox="0 0 50 50" version="1.1" xmlns="http://www.w3.org/2000/svg" xmlns:xlink="http://www.w3.org/1999/xlink">
    <!-- Generator: Sketch 41.2 (35397) - http://www.bohemiancoding.com/sketch -->
    <title>profile</title>
    <desc>Created with Sketch.</desc>
    <defs></defs>
    <g id="Page-1" stroke="none" stroke-width="1" fill="none" fill-rule="evenodd">
        <g id="Show" transform="translate(-1132.000000, -15.000000)">
            <g id="All">
                <g id="header">
                    <g id="menu" transform="translate(214.000000, 15.000000)">
                        <g id="Button">
                            <g id="profile" transform="translate(918.000000, 0.000000)">
                                <circle id="Oval" fill="#FFC82C" cx="25" cy="25" r="25"></circle>
                                <path d="M31.75,19.5625 C31.75,15.94 28.81,13 25.1875,13 C21.565,13 18.625,15.94 18.625,19.5625 C18.625,21.5575 19.514875,23.345125 20.921875,24.55 C17.995,26.085625 16,29.151625 16,32.6875 C16,33.412 16.588,34 17.3125,34 C18.037,34 18.625,33.412 18.625,32.6875 C18.625,29.065 21.565,26.125 25.1875,26.125 C28.81,26.125 31.75,29.065 31.75,32.6875 C31.75,33.412 32.338,34 33.0625,34 C33.787,34 34.375,33.412 34.375,32.6875 C34.375,29.1529375 32.38,26.0856237 29.453125,24.55 C30.8614375,23.3425 31.75,21.5575 31.75,19.5625 Z M25.1875,23.5 C23.0126875,23.5 21.25,21.7373125 21.25,19.5625 C21.25,17.3876875 23.0126875,15.625 25.1875,15.625 C27.3623125,15.625 29.125,17.3876875 29.125,19.5625 C29.125,21.7373125 27.3623125,23.5 25.1875,23.5 Z" id="Page-1" fill="#FFFFFF"></path>
                            </g>
                        </g>
                    </g>
                </g>
            </g>
        </g>
    </g>
</svg>